<svg viewBox="15.600000000000023 -10.400000000000091 1060.7999999999997 1034.7999999999997" xmlns="http://www.w3.org/2000/svg" xmlns:blush="http://design.blush" overflow="visible" xmlns:xlink="http://www.w3.org/1999/xlink" width="1060.7999999999997px" height="1034.7999999999997px"><g id="Master/Composition/Color Comp" stroke="none" stroke-width="1" fill="none" fill-rule="evenodd" blush:i="0"><g id="Color/Bottom" blush:width="1040" blush:height="1040" blush:component="Color/Bottom" blush:i="0.0" transform="scale(1 1)"><g id="Color/Bottom/Phone" stroke="none" stroke-width="1" fill="none" fill-rule="evenodd" blush:i="0.0.0"><g id="Group-61" transform="translate(40.000000, 231.000000)" blush:i="0.0.0.0"><path d="M263.788173,608.104717 C259.289154,609.023102 235.864867,607.053971 248.111836,616.006695 C272.597132,634.264428 217.03792,644.200699 250.274909,651.95097 C255.358455,652.65554 305.68934,648.413865 295.391513,641.570779 C267.446597,631.639599 291.21447,602.895786 263.788173,608.104717 M303.544635,694.422701 C273.477703,693.941109 242.507511,697.166655 213.803034,686.789519 C197.565941,680.294645 186.265451,697.301053 171.369203,700.80354 C109.226773,713.228206 124.113296,625.594754 120,590.313304 C121.795718,579.678572 140.980296,579.918859 146.650529,587.933853 C149.080475,591.000565 152.154372,590.894676 155.026225,589.655569 C170.136403,583.131169 186.387542,582.84201 202.382614,582.638377 C261.066504,579.037128 318.83741,564.385735 377.845437,574.504258 C406.024812,579.922931 399.657684,617.808847 405.845456,638.301452 C407.085819,649.812824 412.857616,661.423976 410.395256,673.002548 C406.024812,683.308413 393.208442,679.987159 384.263346,683.245287 C361.129701,698.951498 329.97259,694.152887 303.544635,694.422701" id="Fill-1" fill="#42C7FF" blush:i="0.0.0.0.0"/><path d="M263.38331,355 C301.181473,355.480196 333.515414,386.950732 345,418.655806 C344.534569,432.963629 325.80071,434.022082 321.313784,420.701947 C296.182682,377.30334 253.021805,378.075697 207.436585,386.516029 C182.119742,391.209819 168.873863,417.068632 149.002884,430.704179 C146.624975,432.481411 143.689845,434.057465 140.389714,432.089166 C122.895564,413.882152 162.507936,389.081792 174.924463,376.339915 C199.244571,356.669061 233.617337,360.200271 263.38331,355" id="Fill-3" fill="#3F5EFF" blush:i="0.0.0.0.1"/><path d="M532.235082,377 C541.142893,379.506629 556.421846,382.658952 557.722867,394.688538 C566.50422,412.824798 557.062712,424.561996 536.275319,423.979247 C494.388674,421.503075 483.392157,381.276194 532.235082,377" id="Fill-5" fill="#FF3B54" blush:i="0.0.0.0.2"/><path d="M156.828181,190 C151.025402,186.82123 132.787942,189.281017 134.078881,182.230247 C120.773193,174.086581 137.220308,156.637341 142.462463,147.458464 C155.893808,134.939097 170.472176,151.912449 180.805054,160.118949 C185.990288,165.206422 180.567702,170.086853 179.001821,175.223769 C177.206107,184.548915 166.367379,189.866092 156.828181,190" id="Fill-7" fill="#FF3B54" blush:i="0.0.0.0.3"/><path d="M69,336.549824 C58.2889731,358.920439 43.9102177,353.204483 26.0125284,343.060788 C15.8716991,328.098433 22.0189727,311.133873 36.3738341,300.853456 C51.3195288,294.609858 67.7824923,324.261126 69,336.549824" id="Fill-9" fill="#FF3B54" blush:i="0.0.0.0.4"/><path d="M309.712525,187.82847 C283.821786,191.228159 288.616128,143.000145 309.278536,140 C345.415943,143.013361 344.251818,185.583699 309.712525,187.82847" id="Fill-11" fill="#FFC540" blush:i="0.0.0.0.5"/><path d="M552.736293,531 C539.187193,530.310028 523.239022,527.818119 525.157844,512.409767 C529.683265,502.385662 533.855563,481.933942 549.768964,488.156012 C576.784588,497.629782 583.324447,523.342541 552.736293,531" id="Fill-13" fill="#FF3B54" blush:i="0.0.0.0.6"/><path d="M561.839315,583.717729 C567.124102,578.874215 577.102708,571.509588 582.730038,579.626269 C586.112783,584.287374 593.080734,585.667159 594.762805,591.214832 C596.517104,601.84855 588.319064,617.455201 577.489026,621.491633 C561.612777,625.788939 540.89059,601.808808 550.405177,588.469529 C554.801323,584.996628 560.168189,590.35374 561.839315,583.717729" id="Fill-15" fill="#FF3B54" blush:i="0.0.0.0.7"/><path d="M72.2064901,699.978534 C72.6964103,745.493868 4.82304254,697.57249 40.2375803,677.824909 C58.1045589,672.199669 77.1477775,679.577797 72.2064901,699.978534" id="Fill-17" fill="#FF3B54" blush:i="0.0.0.0.8"/><path d="M596,285.017074 C593.308117,300.83905 594.824222,309.396873 576.94274,308.910329 C570.768535,309.853524 560.437939,303.166629 558.366331,297.757944 C558.690191,290.512348 546.872033,282.55652 554.662246,281.005143 C556.370473,280.630958 558.370722,279.616636 557.212509,278.206481 C552.271169,272.191678 558.363037,272.208171 561.478683,271.588651 C577.404927,267.626199 595.709075,265.711976 596,285.017074" id="Fill-19" fill="#FFC540" blush:i="0.0.0.0.9"/><path d="M183.83406,81.5569735 C175.67849,45.1221312 230.184179,64.3133006 223.416538,84.0792591 C219.28845,90.7679945 215.004585,100.170269 206.976666,103 C193.980113,101.284887 183.146045,94.3154406 183.83406,81.5569735" id="Fill-21" fill="#FFC540" blush:i="0.0.0.0.10"/><path d="M577.548813,663.348874 C585.568401,662.433479 594.622081,662.685264 594.996939,672.166429 C595.548454,675.896305 598.617333,679.366243 595.87807,683.714877 C592.041163,694.049255 581.176747,695.2725 573.604188,701.606868 C573.009585,702.517166 570.903703,701.627255 570.682881,701.136938 C569.779129,694.845383 562.381072,701.957531 560.99259,696.901454 C553.409258,681.496727 555.433275,660.533373 577.548813,663.348874" id="Fill-23" fill="#FF3B54" blush:i="0.0.0.0.11"/><path d="M13.13081,215 C-16.7129513,209.917803 10.8287243,174.685843 31.4301432,178.253135 C58.9740123,194.91506 40.3664913,214.2522 13.13081,215" id="Fill-25" fill="#FF3B54" blush:i="0.0.0.0.12"/><path d="M650.728148,458.911694 C641.757595,457.254181 638.438033,449.038061 632.370872,443.667475 C627.435651,439.059304 631.731363,434.505226 631.764046,429.948087 C639.69853,424.607099 655.426957,412.123701 665.065344,421.232876 C674.062044,431.394328 674.361643,437.436493 665.63186,448.231759 C661.493029,453.999373 659.923128,459.787399 650.728148,458.911694" id="Fill-27" fill="#FFC540" blush:i="0.0.0.0.13"/><path d="M522.653691,208.758433 C522.443606,207.944509 522.291998,207.357183 522.139307,206.769856 C520.760757,207.698604 520.483531,208.824482 520.780249,210.336492 C521.433247,209.786763 522.087327,209.236017 522.653691,208.758433 M505.582631,208.384496 C510.653918,201.427015 499.98613,192.569362 508.285585,187.062923 C512.445058,185.117023 515.629909,180.544413 521.801438,182.458813 C529.793345,185.953303 549.651827,182.999397 546.704134,195.51209 C546.255808,197.967074 542.103914,200.173104 546.243896,202.947154 C543.710959,209.477857 536.696923,215.970964 528.055268,215.966899 C523.077111,215.065587 517.947346,223.0768 515.712211,216.161997 C510.244577,212.588248 506.571331,217.645555 505.582631,208.384496" id="Fill-29" fill="#42C7FF" blush:i="0.0.0.0.14"/><path d="M43,621.588614 C45.3368882,618.281028 47.963555,616.849098 51.7756794,616.18758 C54.2453828,614.191834 56.551537,612.183874 60.0936405,613.338985 C70.5673782,615.414114 83.6809544,624.42805 87.1934214,633.929473 C93.5015928,649.190168 61.003589,650.416519 52.4123141,645.240401 C47.3269204,638.948863 46.4916118,629.608239 43,621.588614" id="Fill-31" fill="#FFC540" blush:i="0.0.0.0.15"/><path d="M374.386191,49.133182 C378.066709,62.7900802 360.643109,73.6703499 347.280015,68.8297611 C336.923973,63.8801639 334.340711,36.2115762 350.959438,38.0914565 C359.262231,40.5071232 378.687612,36.0377798 374.386191,49.133182" id="Fill-33" fill="#FFC540" blush:i="0.0.0.0.16"/><path d="M686.727701,666.088668 C689.056137,677.329477 675.913076,682.257113 667.833059,685.826524 C653.441071,688.777223 644.6193,653.062104 664.88016,656.507562 C674.039685,656.962405 689.080029,651.933926 686.727701,666.088668" id="Fill-35" fill="#FFC540" blush:i="0.0.0.0.17"/><path d="M473.063313,673.459873 C471.147515,673.378605 468.712855,677.363893 466.378515,672.823269 C451.92481,655.189021 459.720685,646.336994 480.931462,644 C500.933,644.194836 487.310984,677.650417 473.063313,673.459873" id="Fill-37" fill="#42C7FF" blush:i="0.0.0.0.18"/><path d="M596.180966,441.05906 C610.599599,440.556569 620.154115,457.244092 623,468.664834 C619.504607,481.709813 599.784794,466.876923 590.854337,465.705137 C581.412682,463.205188 587.13322,439.670432 596.180966,441.05906" id="Fill-39" fill="#FFC540" blush:i="0.0.0.0.19"/><path d="M73.9409241,52 C96.682531,65.4109053 90.9277351,92.5957861 63.2214421,79.5469195 C46.858632,64.7291172 57.2710313,58.2990616 73.9409241,52" id="Fill-41" fill="#FFC540" blush:i="0.0.0.0.20"/><path d="M718,732.755191 C717.089183,741.800931 703.612366,753.565899 694.630729,745.060538 C690.119186,740.798681 677.786616,738.178353 683.467496,730.406072 C690.046103,717.86928 713.239755,719.934955 718,732.755191" id="Fill-43" fill="#42C7FF" blush:i="0.0.0.0.21"/><path d="M74.2363333,15.322 C76.2541111,-4.338 105.645222,-4.275 102.957444,17.415 C102.343,29.649 71.0885556,31.255 74.2363333,15.322" id="Fill-45" fill="#42C7FF" blush:i="0.0.0.0.22"/><path d="M316.639376,753.0002 C307.707776,746.8412 299.541896,740.1032 311.986736,732.2272 C316.097216,729.7302 319.628816,724.6022 325.128176,727.5922 C337.755536,735.1252 329.273216,751.0862 316.639376,753.0002" id="Fill-48" fill="#42C7FF" blush:i="0.0.0.0.23"/><path d="M668.001257,606.672709 C667.819198,595.221119 687.479396,592.889956 686.99105,605.398539 C685.70593,621.144849 669.609799,622.765705 668.001257,606.672709" id="Fill-51" fill="#42C7FF" blush:i="0.0.0.0.24"/><path d="M243.219692,22.6378952 C242.293496,9.40016673 259.169169,19.4513082 264,23.0130774 C263.519711,35.808662 240.523839,36.9686742 243.219692,22.6378952" id="Fill-53" fill="#42C7FF" blush:i="0.0.0.0.25"/><path d="M423,120.272417 C421.198508,129.22762 408.253602,128.946136 405.309115,121.188244 C403.642031,117.216308 409.055886,109.062329 413.455945,109 C418.171708,110.356148 420.103442,117.430437 423,120.272417" id="Fill-55" fill="#42C7FF" blush:i="0.0.0.0.26"/><path d="M175,737.266751 C173.186366,743.63004 164.86918,742.910376 161.362112,739.031492 C155.564867,724.7446 169.829282,729.95747 175,737.266751" id="Fill-57" fill="#42C7FF" blush:i="0.0.0.0.27"/><path d="M562,583.906676 C561.197171,585.27282 560.39542,586.638965 559.607698,588 C558.842636,585.942098 558.72178,584.029292 559.699419,582 C560.466639,582.635559 561.233859,583.271117 562,583.906676" id="Fill-59" fill="#FFC540" blush:i="0.0.0.0.28"/></g><g id="Ink" transform="translate(16.000000, 421.000000)" fill="#000" blush:i="0.0.0.1"><path d="M200.281964,395.205939 C200.281964,395.188638 200.281964,395.170319 200.281964,395.153018 C190.67601,397.235281 145.365966,390.31883 145.628265,399.0509 C146.959581,427.274417 146.844055,455.295408 155.31418,482.495095 C156.069959,486.236248 157.843881,487.146093 161.970436,487.369992 C212.403583,491.664787 262.572207,495.806923 313.356251,494.588707 C351.460479,493.641206 391.145366,501.719898 427.740195,488.942376 C434.862875,486.482537 426.914237,478.995143 427.2457,474.410297 C428.539162,448.107224 420.161889,423.560743 415.672561,397.943617 C415.87878,385.108084 378.374857,393.087038 368.23122,391.267348 C312.338108,395.175408 256.310036,395.128592 200.281964,395.205939 M145.099284,389.264468 C194.594185,368.731889 247.373487,377.256344 299.623743,377.748922 C327.082281,376.3638 353.678151,375.478381 380.877566,373.745197 C389.437305,371.466513 411.321432,378.690317 412.059936,367.566596 C407.124698,287.566378 390.441412,208.449545 388.201066,128.345519 C389.054017,112.211544 387.855567,103.133447 368.104897,102.35387 C314.041851,94.6283288 259.299683,101.906072 204.909492,98.3694816 C200.699802,98.2544788 196.293609,99.3810991 192.366796,96.7563894 C188.698028,96.7706375 184.255126,98.4600591 180.417927,98.5475833 C170.00113,101.828725 131.719833,93.4233438 135.876619,108.804204 C141.410002,202.224128 138.489455,295.771268 145.099284,389.264468 M449.49368,480.65505 C486.358431,529.983107 285.704449,508.650598 259.431404,513.130618 C237.439309,512.896541 215.585413,510.88959 193.883753,507.583005 C180.511859,505.718535 167.074105,499.54604 153.666582,504.777141 C141.569795,508.988482 140.234226,482.164335 137.546891,474.814333 C114.529095,355.947243 116.936792,232.257158 119.769884,111.552058 C123.290735,72.2221209 189.791748,82.2589133 219.545696,78.2429751 C277.763369,76.6380246 336.312504,74.9078941 393.764681,84.733 C425.247204,88.9290753 412.735819,128.532781 416.746847,149.52537 C418.881383,177.521935 422.28023,205.444206 424.807772,233.402098 C430.621873,298.84174 436.446772,364.568381 447.50922,429.395354 C449.923395,446.82591 453.769231,468.725292 445.957713,483.082322 C447.88711,482.96223 449.364118,482.844174 449.49368,480.65505" id="Fill-1" blush:i="0.0.0.1.0"/><path d="M535.652547,448 C522.996176,444.966874 480.194279,445.03322 498.476539,425.224322 C513.633664,411.21926 583.116356,447.332574 535.652547,448" id="Fill-3" blush:i="0.0.0.1.1"/><path d="M53.2149448,321.977096 C45.2267344,322.461303 -2.38775914,315.223062 10.0645467,304.538704 C31.4472066,293.988571 122.96603,319.578932 53.2149448,321.977096" id="Fill-5" blush:i="0.0.0.1.2"/><path d="M289.683542,587.394418 C288.573125,632.791864 259.022083,566.040793 267.135625,552.525686 C284.721042,530.846346 290.622083,575.406096 289.683542,587.394418" id="Fill-7" blush:i="0.0.0.1.3"/><path d="M446.758824,1.09231515 C451.020457,0.58849697 456.651437,6.60443636 453.406539,9.95807273 C441.33011,18.2757091 416.601824,45.9486182 402.987314,29.3463152 C399.3076,11.5313455 431.963171,2.65734545 446.758824,1.09231515" id="Fill-10" blush:i="0.0.0.1.4"/><path d="M34.0562857,234.251136 C46.9869807,235.321684 64.7762728,230.196092 73.6293323,241.584032 C74.628488,242.765607 73.4640666,244.880219 71.8459744,244.774285 C50.5126501,245.901874 29.1199165,252.278306 7.62132639,249.140002 C-16.375693,233.235592 22.9715984,233.598214 34.0562857,234.476246 C34.0562857,234.40087 34.0562857,234.325494 34.0562857,234.251136" id="Fill-13" blush:i="0.0.0.1.5"/><path d="M503,154.141157 C499.848329,171.830168 473.773755,168.112995 460.684925,176.266286 C450.991524,180.154039 447.913946,167.566722 454.492187,162.523632 C464.920084,153.767556 493.215323,139.875252 503,154.141157" id="Fill-15" blush:i="0.0.0.1.6"/><path d="M509.198671,256 C499.540747,252.622616 443.838729,254.937967 458.418553,238.153665 C469.14767,228.965986 548.385842,251.894337 509.198671,256" id="Fill-17" blush:i="0.0.0.1.7"/><path d="M14.468939,158 C35.931168,163.572053 64.794947,172.473358 75,191.63275 C60.1494195,195.248777 27.026431,171.053877 8.54359844,167.610532 C-2.17618548,163.492907 8.678486,159.769982 14.468939,158" id="Fill-19" blush:i="0.0.0.1.8"/><path d="M157,564.433742 C155.460513,569.265462 154.234965,575.069405 151.752583,580.352261 C134.858143,617.027101 127.28801,580.136324 137.877781,561.957055 C142.97632,550.951359 155.815447,550.982787 157,564.433742" id="Fill-21" blush:i="0.0.0.1.9"/><path d="M43,426.156807 C48.7980167,407.933445 49.6155458,386.8589 69.5080259,380.161337 C78.0162225,378.663414 76.908356,387.976186 73.2725891,392.363254 C66.6046516,400.834726 50.9668155,436.423735 43,426.156807" id="Fill-23" blush:i="0.0.0.1.10"/><path d="M548.657487,552 C535.254764,550.743542 503.572449,545.871418 512.590323,530.286177 C514.753486,527.945812 516.854875,527.400388 519.828682,528.65883 C531.787851,532.702901 542.678444,540.995328 555.605401,541.73413 C560.618823,541.088546 561.593114,548.887117 557.224522,550.130683 C554.002536,551.211614 550.509614,551.618203 548.657487,552" id="Fill-25" blush:i="0.0.0.1.11"/><path d="M398.547886,549 C406.120706,550.480934 413.227709,549.613748 416.017117,556.941061 C419.521729,567.085711 429.074271,577.711791 428.999564,587.971455 C414.948155,588.99335 387.533076,562.322296 398.547886,549" id="Fill-27" blush:i="0.0.0.1.12"/><path d="M145,42 C131.006699,40.4692413 110.517253,22.9289177 102.108993,11.918411 C99.5796074,-19.7385712 141.882946,33.7821895 145,42" id="Fill-29" blush:i="0.0.0.1.13"/><path d="M69,82.427477 C58.9427851,90.8109353 38.2858681,76.3137417 26.9893034,72.8983677 C16.5668065,69.2603371 15.5405379,58.2824893 28.7037373,60.2295075 C44.0923306,64.2677312 59.2417511,70.3883326 69,82.427477" id="Fill-31" blush:i="0.0.0.1.14"/><path d="M483.485674,330.000676 C497.056944,330.541831 510.652058,333.012878 516.40267,343.873308 C518.286304,347.669254 515.456517,350.543958 511.52668,348.087642 C500.369019,342.847961 485.309699,348.741743 475.156716,341.999398 C467.437934,334.681523 475.298693,329.934873 483.485674,330.000676" id="Fill-33" blush:i="0.0.0.1.15"/><path d="M270,25.7073541 C266.888778,32.5933613 268.618386,44.7307516 260.838259,48 C238.970637,40.5219001 263.801377,-0.647394071 270,25.7073541" id="Fill-35" blush:i="0.0.0.1.16"/><path d="M498.440023,64.0103037 C537.879571,68.9054212 500.952708,78.6404223 483.936469,77.9667641 C466.0096,69.0642191 487.196197,63.7331471 498.440023,64.0103037" id="Fill-37" blush:i="0.0.0.1.17"/><path d="M303.077111,211.883522 C297.465805,211.612169 296.197829,213.152197 297.599845,217.366265 C303.652186,232.810082 299.507754,249.509412 298.676489,265.426072 C311.148701,274.966955 330.802865,248.252887 334.236021,237.429153 C334.599226,227.738419 313.218755,211.190965 303.077111,211.883522 M240.283665,214.242671 C220.431683,216.167452 202.37627,225.932101 189.461943,240.042442 C180.818521,247.410479 228.937822,260.593361 235.482004,264.942092 C248.402818,269.550026 235.514433,243.126548 239.344304,236.61712 C239.263231,229.433361 244.46485,220.497958 240.283665,214.242671 M337.343804,207.686667 C365.67382,235.779774 358.654012,241.670559 334.700837,270.791363 C314.609961,290.110057 283.071631,286.514634 256.675468,288 C224.815009,288.017199 196.375816,271.851462 169.902903,257.022238 C158.363567,246.868786 184.652715,229.263259 189.098737,218.737203 C195.995315,213.91968 192.312456,208.790303 186.080674,205.702147 C180.815278,202.615004 165.714151,187.905256 178.075023,186.462429 C191.902769,186.036162 195.769392,210.730273 210.10195,203.410837 C236.550001,197.378301 194.65059,172.177936 213.521053,161.545566 C228.7346,162.283686 225.330631,193.51355 240.984132,192.941482 C279.918447,188.25761 267.766202,189.808775 270.211352,157.994693 C282.608977,142.126634 289.274227,168.239271 285.378418,178.447399 C282.755989,189.591086 287.235521,190.753447 297.033417,189.588048 C304.982858,188.258622 297.710103,174.137143 306.428112,169.041179 C321.466543,159.325132 317.338325,181.659081 314.925604,189.263032 C313.593851,195.339106 322.025403,195.855486 325.913646,198.771515 C327.772911,199.655437 329.427874,199.731375 331.149856,198.079971 C359.552297,171.622068 375.796007,188.648439 337.343804,207.686667" id="Fill-39" blush:i="0.0.0.1.18"/><path d="M286.599206,116.333621 C294.837522,117.654839 310.492044,112.448713 314,121.358918 C313.545903,127.220306 311.598234,129.458308 305.772445,129.64011 C293.695822,130.017323 281.597679,130.081488 269.5146,129.909409 C261.731458,130.664807 249.767822,123.58817 259.880634,117.732615 C268.540766,115.402254 277.694809,116.61167 286.599206,116.367648 C286.599206,116.355981 286.599206,116.344315 286.599206,116.333621" id="Fill-41" blush:i="0.0.0.1.19"/><path d="M234.996691,124.352854 C235.256788,136.667943 220.10246,141.366516 218.085125,127.708691 C216.689485,118.053019 232.887371,115.700226 234.996691,124.352854" id="Fill-43" blush:i="0.0.0.1.20"/><path d="M283.315252,427.620454 C263.362057,432.984116 284.313237,462.415596 299.36202,451.902334 C314.304727,441.890905 294.478174,429.232986 283.315252,427.620454 M281.608287,412 C360.13408,414.119414 311.596531,501.262767 262.032854,455.966479 C250.55928,444.331412 258.423008,430.422443 261.481906,417.695862 C264.631727,411.755646 275.505645,413.632726 281.608287,412" id="Fill-45" blush:i="0.0.0.1.21"/></g></g></g><g id="Color/Top" blush:width="1040" blush:height="1040" blush:component="Color/Top" blush:i="0.1" transform="scale(1 1)"><g id="Color/Top/Plants" stroke="none" stroke-width="1" fill="none" fill-rule="evenodd" blush:i="0.1.0"><g id="Color" transform="translate(166.000000, -4.000000)" blush:i="0.1.0.0"><path d="M147.7067,121.6584 C112.6857,113.4594 107.9027,157.2764 69.9877,124.9424 C68.8957,124.2714 66.8187,123.7574 65.9977,124.3284 C62.2617,126.9294 58.2467,125.2864 54.3897,125.5854 C43.8417,127.1174 41.2177,116.2844 37.9297,108.5634 C36.5747,97.0414 19.1937,94.1684 23.0627,80.8104 C24.5187,67.0824 19.4177,53.0274 15.1337,40.0264 C13.3407,33.2444 15.8357,20.8774 23.5247,20.0044 C29.9837,21.4034 38.2607,23.1244 44.2847,23.9904 C46.8067,26.4034 46.8347,30.4094 46.3077,34.2244 C43.7977,42.0044 58.6297,55.0304 61.5937,43.3404 C65.3227,29.4594 61.7807,0.5954 81.9997,0.7654 C97.1417,-0.9176 111.1927,-1.1796 118.0057,14.7654 C125.3147,32.1564 145.5957,10.4774 128.8227,56.9544 C127.5037,80.0064 138.1057,38.7224 145.9877,40.1934 C150.3917,40.6094 152.6507,38.1944 155.0517,35.3314 C162.6917,24.1454 180.4307,31.8054 181.1907,44.5074 C183.9457,53.5064 174.0637,61.1424 180.6737,68.9834 C194.1797,88.1124 158.3547,92.9684 158.4717,108.7854 C158.9477,117.6524 157.3797,122.1364 147.7067,121.6584" id="Fill-1" fill="#FFC43B" blush:i="0.1.0.0.0"/><path d="M678.945,120.447 C622.834,101.868 557.435,99.877 503.562,126.53 C460.619,147.406 427.799,182.142 392.226,213.031 C381.404,220.541 388.988,200.956 379.18,199.836 C371.449,194.442 377.252,181.507 381.067,175.025 C425.544,99.311 527.421,65.338 610.551,81.972 C630.568,84.517 721.269,86.29 678.945,120.447" id="Fill-3" fill="#3CC5FF" blush:i="0.1.0.0.1"/><path d="M880.5534,618.3928 C878.3254,630.8908 905.8244,641.7578 887.9554,654.5308 C856.6104,674.1058 819.5184,682.6048 785.5274,696.7678 C743.5554,711.6058 766.3654,679.6078 733.8354,699.3448 C725.9354,703.9258 713.9264,706.9288 713.9544,693.8148 C710.4584,681.9838 710.2764,683.7548 720.1074,676.1058 C732.1564,664.9348 750.0664,659.6648 758.4034,645.0058 C762.9664,634.4848 771.1504,626.5468 780.3274,619.9268 C805.5364,599.5538 878.7734,560.1888 880.5534,618.3928" id="Fill-5" fill="#3CC5FF" blush:i="0.1.0.0.2"/><path d="M802.3391,96.8835 C801.6671,110.4305 791.5521,111.8815 782.7291,118.5625 C770.5441,131.5645 753.7981,120.2825 747.2281,107.3965 C732.5381,83.9735 681.9401,39.9295 709.3171,12.4195 C747.8181,-5.7595 790.6971,66.5215 802.3391,96.8835" id="Fill-7" fill="#FFC43B" blush:i="0.1.0.0.3"/><path d="M66.5661,205.4431 C79.6551,206.3331 90.1601,206.7561 100.5951,207.8571 C128.4731,216.2561 120.6051,233.5001 94.8931,235.8001 C68.2731,244.0841 58.1351,290.3581 24.1371,279.5041 C-16.4329,273.1581 0.0811,224.0151 30.1321,214.0941 C42.6731,208.8011 55.6351,205.9351 66.5661,205.4431" id="Fill-9" fill="#FFC43B" blush:i="0.1.0.0.4"/><path d="M685.8615,592.1535 C664.2135,591.6255 645.1575,593.9365 623.9995,591.5725 C619.1235,590.7595 619.0585,588.6475 619.0615,582.9315 C618.3435,571.9995 628.2065,571.3845 636.1735,568.9895 C641.9945,567.6935 647.0915,565.7405 648.3335,558.8695 C659.6995,545.4655 687.0925,556.0855 703.3355,555.0635 C726.6405,560.7185 758.6845,541.4515 755.6715,580.3375 C750.6955,601.7505 701.8055,585.8985 685.8615,592.1535" id="Fill-12" fill="#3A5AFF" blush:i="0.1.0.0.5"/><path d="M771.1857,348.5559 C707.8167,343.5189 726.2147,283.2979 777.6367,284.7689 C813.6117,297.7659 807.9177,346.0179 771.1857,348.5559" id="Fill-14" fill="#3A5AFF" blush:i="0.1.0.0.6"/><path d="M499.5007,779.695 C482.4837,779.905 445.2267,776.668 456.4587,750.986 C459.8717,741.671 466.7147,734.488 476.8347,731.106 C492.2597,726.309 506.1447,737.065 521.4987,736.934 C526.2617,737.452 529.6087,739.356 531.7477,743.782 C536.8007,749.109 540.7047,753.53 538.6017,761.396 C542.0897,780.226 512.6447,778.893 499.5007,779.695" id="Fill-16" fill="#3A5AFF" blush:i="0.1.0.0.7"/><path d="M694.1349,434.051 C691.4119,414.124 700.0129,365.829 727.6849,388.956 C739.7619,401.695 732.0099,477.863 712.3069,473.65 C697.4989,465.643 692.4219,450.162 694.1349,434.051" id="Fill-19" fill="#3A5AFF" blush:i="0.1.0.0.8"/><path d="M558.2585,604.1394 C539.3315,593.5034 529.2975,550.5344 533.7025,530.0864 C532.8905,521.9644 574.0895,524.6794 572.2075,533.7544 C570.6725,538.1184 562.6635,536.9704 566.1255,542.4544 C571.8995,560.8804 592.5135,605.2254 558.2585,604.1394" id="Fill-21" fill="#FFC43B" blush:i="0.1.0.0.9"/><path d="M826.0685,428.8322 C836.9275,426.6252 927.2715,430.8562 883.4905,447.9452 C848.4905,444.7912 812.8925,456.6252 778.3365,448.7452 C766.8085,444.8962 776.5685,427.7062 785.7875,427.9062 C798.8395,428.7942 814.0415,427.3742 826.0685,428.8322" id="Fill-23" fill="#FFC43B" blush:i="0.1.0.0.10"/></g><g id="Ink" transform="translate(172.000000, -8.000000)" fill="#000" blush:i="0.1.0.1"><path d="M561.2198,575.2638 C561.0918,575.2638 560.9628,575.2638 560.8348,575.2638 C562.4318,561.3218 547.6808,515.8908 531.2168,538.4488 C518.8398,554.4368 536.2128,567.0288 546.8808,577.7508 C556.4098,588.2308 562.7708,595.8458 561.2198,575.2638 M716.2538,421.2888 C717.3108,409.5528 714.9338,398.6858 706.0128,390.678125 C694.4058,390.4198 695.0548,464.7528 699.6348,474.4648 C714.9938,466.8878 714.3128,436.9078 716.2538,421.2888 M609.6568,651.4508 C594.7238,645.7768 547.9108,685.5898 560.4498,688.0928 C580.4218,685.5558 601.8518,687.5278 620.0988,677.8668 C639.2738,670.5638 629.4708,648.5178 609.6568,651.4508 M703.0668,587.3108 C734.0748,589.4248 751.0228,574.6638 710.4798,563.6278 C683.3698,562.1858 654.0638,566.0628 631.8408,582.0068 C654.5838,587.3888 676.1578,584.2238 703.0668,587.3108 M483.3238,736.1198 C444.8328,732.3378 456.4078,787.3308 488.5268,779.0148 C498.5338,774.0608 514.7448,773.7268 521.7868,765.6268 C521.4638,747.5048 496.5818,736.2858 483.3238,736.1198 M825.1288,452.2908 C841.5798,450.4388 861.1028,452.0478 877.5668,445.7928 C888.4648,433.0698 852.5508,426.6228 843.7038,427.1778 C817.7548,428.8788 783.2858,429.5648 764.1128,447.3878 C783.2388,452.4978 804.1458,449.5498 825.1288,452.2908 M856.2558,293.2748 C890.5888,229.5418 896.7158,145.7938 867.1668,79.0958 C817.0828,10.8718 815.4778,142.6198 827.1558,171.5138 C837.1618,195.5688 836.7028,222.1858 847.1028,246.0498 C854.1658,261.3348 855.7248,276.3778 856.2558,293.2748 M552.0348,665.5878 C613.3588,589.1288 704.5798,683.6328 593.0058,701.4198 C578.6528,704.2588 558.9698,698.9198 549.6788,712.8828 C546.4128,721.9228 534.2648,725.5338 533.1618,735.0198 C531.1358,750.4148 543.2408,761.7168 545.2658,776.3148 C550.9458,790.9478 566.5948,799.9838 576.1348,812.3238 C593.9678,827.3318 619.7098,828.5208 636.2008,846.4438 C637.4258,847.4548 636.2448,849.3568 634.7868,849.0208 C619.5588,845.6188 605.9018,837.4708 590.2818,835.1218 C565.4298,828.6208 542.9598,799.9788 527.8428,779.9198 C519.6558,771.2238 501.2368,785.9018 490.3408,786.3958 C456.0338,798.6588 424.8058,738.8288 465.4178,724.6448 C497.2908,711.3048 521.7918,748.1968 518.5308,723.0248 C519.1928,693.4388 533.7538,665.1058 547.1618,639.2928 C559.0668,615.7968 542.9478,592.2308 525.1528,577.0408 C508.8268,562.1078 512.1388,537.5878 526.1088,522.1998 C536.4998,509.8538 554.3898,521.2658 562.2558,531.1508 C577.1468,548.9638 573.9588,572.3668 573.2988,593.8858 C570.3518,610.5768 622.3478,541.5818 630.3058,538.0068 C641.1698,522.5498 681.4538,499.3278 682.6548,484.8708 C681.5868,465.4208 674.7298,359.4748 706.5168,372.2988 C735.0328,391.4598 731.4018,426.5868 722.6458,455.8588 C759.4608,429.3088 824.2068,373.2538 836.3778,329.7978 C839.2738,305.4878 844.1178,281.2908 834.1388,257.8718 C823.3028,232.2428 821.3198,204.4278 813.5438,177.8978 C802.9348,145.2588 802.5468,24.4238 860.5588,52.6598 C893.7038,79.2558 900.5208,138.0788 899.5848,178.4438 C894.5018,271.6708 849.3078,356.0878 787.9438,424.2318 C821.1728,419.6288 870.4848,403.3908 892.0098,439.2988 C899.4488,475.8658 807.6808,461.2828 785.7878,460.9998 C742.3188,454.2308 730.9508,469.6048 701.1338,497.4318 C673.5288,519.9248 646.4448,541.0388 623.4208,568.7728 C658.9378,551.9448 711.1118,535.8498 743.6038,565.9398 C768.2598,602.7258 710.2798,604.4298 686.9958,600.4798 C662.0788,597.7508 636.9988,596.3828 611.9658,595.2478 C596.3128,594.6808 601.2388,594.8148 590.2538,604.3408 C578.4328,624.6588 556.3668,642.4758 552.0348,665.5878" id="Fill-1" blush:i="0.1.0.1.0"/><path d="M697.0069,122.4352 C630.3619,68.4582 493.6289,67.7662 428.1499,125.2792 C382.3589,164.0442 366.8959,227.0622 356.2219,283.8072 C356.4109,298.9332 383.3629,259.8432 390.2069,258.7462 C426.3149,229.2992 474.8759,220.1582 520.1599,221.3302 C591.9889,217.1112 662.0789,286.5082 733.4429,244.6982 C748.7879,235.8042 769.3509,218.1492 761.0179,198.6392 C750.5179,176.8422 733.9059,157.1342 711.4109,147.2902 C671.8369,126.9092 629.4349,115.6072 584.6849,117.4342 C528.7959,116.7822 477.9669,144.6282 434.4399,176.0142 C437.7909,153.6872 486.4239,128.0692 507.0379,118.4072 C567.2819,88.9322 637.3879,97.6482 697.0069,122.4352 M780.4099,198.3132 C779.7089,210.6992 777.4049,221.1022 778.9839,233.3752 C779.0779,234.3532 778.2359,235.5712 777.5219,236.0102 C766.0419,221.3182 771.1809,241.4342 743.9439,254.7902 C667.9539,297.0292 606.9909,244.2892 533.9859,235.2192 C460.0169,229.4832 371.4449,261.1462 348.7819,338.2232 C342.8179,344.1472 335.6989,329.9352 339.1889,324.2792 C343.5999,312.4492 343.3799,300.0242 343.3649,287.6942 C342.6979,262.5112 352.0319,239.4392 359.2369,215.9892 C365.4509,189.1512 375.5349,163.0092 391.5079,140.6882 C459.8449,48.2422 610.3129,44.7502 701.5359,103.7732 C718.0519,115.9422 732.5699,130.0812 744.6139,146.6142 C755.8949,163.5962 777.4199,177.3052 780.4099,198.3132" id="Fill-4" blush:i="0.1.0.1.1"/><path d="M280.6505,102.8029 C237.1965,116.3729 309.1735,125.8849 321.4095,127.0949 C316.1715,113.6979 296.7515,103.0739 280.6505,102.8029 M264.6025,201.7059 C266.7735,162.0879 238.6565,220.3429 242.9875,232.7679 C243.6985,235.3659 245.2685,237.3009 248.0035,237.8699 C268.9085,243.1239 261.2815,212.5839 264.6025,201.7059 M164.8525,69.2539 C164.7925,69.2529 164.7335,69.2519 164.6745,69.2509 C164.9545,59.8339 164.8185,50.0279 159.4245,41.8819 C138.2925,16.3709 134.6095,89.8909 119.7295,79.6069 C103.8385,62.4279 113.1735,28.7349 89.5455,15.9279 C62.6475,5.6929 65.3585,49.6409 70.3365,65.2359 C73.4735,71.1289 67.4865,85.5209 60.8165,78.0959 C52.8675,63.6029 45.5455,28.7049 25.2025,29.1229 C1.9795,30.6019 18.7725,61.6099 22.2835,74.7009 C30.7245,95.4109 44.7085,110.9039 64.7485,121.0149 C88.9795,132.4779 87.1085,115.3399 93.5335,119.8029 C99.0805,130.0419 108.9345,127.5599 118.1625,124.1839 C140.7925,113.9729 166.9445,97.5519 164.8525,69.2539 M319.1405,140.3119 C298.2345,136.2149 243.1955,137.6779 250.9975,105.9199 C270.1535,63.8109 328.1735,97.8019 339.8075,130.1739 C353.7165,123.2209 365.7665,114.4849 377.8945,105.8879 C386.2435,101.7769 393.3355,89.8429 403.0775,91.3349 C383.2295,126.5849 334.2875,152.4639 296.4285,166.2859 C259.6825,177.2129 297.6665,248.3539 251.9895,249.1309 C223.0405,250.7959 222.7105,217.0959 233.5385,198.1879 C240.0915,187.2409 240.5655,184.5499 227.0695,188.7719 C179.7625,199.2369 104.6925,198.3659 87.9205,142.9299 C84.3565,134.4819 72.9535,137.4949 65.7325,134.3719 C48.0525,130.0449 34.4395,119.3829 22.9495,105.8809 C9.0985,84.0089 -6.6735,53.6179 2.9645,27.6589 C14.7585,10.7349 41.7495,13.6399 51.3175,31.3109 C52.2335,32.4119 54.3345,31.8489 54.7925,30.3709 C57.7725,13.9439 68.3745,-3.6401 87.6055,0.6569 C103.8675,3.4749 112.7755,18.9639 119.0455,32.7349 C124.0545,58.9439 138.5365,-1.7011 168.5675,26.1369 C193.5765,56.5949 182.3025,119.9089 144.0845,132.8019 C141.4125,131.1279 139.7335,132.7209 139.3735,135.0169 C134.9515,144.0079 121.5465,144.8809 112.4435,145.4229 C109.5755,145.3529 108.3635,147.3759 109.6045,149.7089 C116.7425,167.9809 138.9045,171.0359 155.9545,175.4279 C211.8375,183.4019 268.9825,162.4879 319.1405,140.3119" id="Fill-6" blush:i="0.1.0.1.2"/><path d="M719.8604,695.7994 C765.8324,682.0224 820.1424,691.6704 863.7874,670.4774 C872.7274,666.7964 874.2404,653.3504 875.3714,644.6954 C879.0074,621.7434 854.5794,608.2574 834.4024,609.0964 C801.4644,605.3614 731.3234,667.7214 719.8604,695.7994 M695.8464,752.0514 C693.9474,748.3114 697.0574,744.5724 693.2074,742.0434 C681.3814,762.9934 676.4264,784.9254 669.8364,808.2994 C664.6354,778.0614 681.4774,749.0174 690.9884,721.1014 C712.6754,669.4614 753.6144,624.9984 804.1194,600.0624 C878.7424,569.1324 925.8464,663.1034 853.0594,692.7704 C820.0764,700.6784 785.9234,706.6684 751.9234,706.4314 C722.3734,705.7284 702.8364,725.2154 695.8464,752.0514" id="Fill-8" blush:i="0.1.0.1.3"/><path d="M768.2916,98.4987 C768.3296,57.4097 745.9806,16.7627 700.6236,21.2867 C695.9836,21.9987 698.0076,26.4857 700.5136,28.4597 C715.6116,45.0107 726.8076,63.8797 734.2196,85.0167 C736.2366,102.2807 770.7936,131.8617 768.2916,98.4987 M689.1456,18.6357 C703.4896,-2.9183 752.2466,14.0837 763.1196,32.7487 C775.3966,52.6727 800.7926,121.8737 761.7636,123.6337 C744.8846,121.1687 730.9276,109.5587 724.8496,93.5447 C714.9226,65.7147 701.0646,38.6787 680.8766,17.2007 C683.9466,15.7167 685.9926,17.4937 689.1456,18.6357" id="Fill-10" blush:i="0.1.0.1.4"/></g></g></g></g></svg>