<svg viewBox="-39.000000000000114 0 1079 1065.9999999999998" xmlns="http://www.w3.org/2000/svg" xmlns:blush="http://design.blush" overflow="visible" xmlns:xlink="http://www.w3.org/1999/xlink" width="1079px" height="1065.9999999999998px"><g id="Master/Composition/Color Comp" stroke="none" stroke-width="1" fill="none" fill-rule="evenodd" blush:i="0"><g id="Color/Bottom" blush:width="1040" blush:height="1040" blush:component="Color/Bottom" blush:i="0.0" blush:value="Thinker" transform="scale(1 1)"><g id="Color/Bottom/Thinker" stroke="none" stroke-width="1" fill="none" fill-rule="evenodd" blush:i="0.0.0"><g id="Color" transform="translate(-35.000000, 343.000000)" blush:i="0.0.0.0"><path d="M43.9929,381.9912 C44.0439,364.7212 42.1319,342.0792 56.6229,329.8952 C60.4299,327.3802 61.4929,324.3952 61.2189,319.8422 C60.0489,305.2052 63.0639,290.3772 73.6029,279.5372 C80.7219,270.7562 81.4949,257.7492 93.7809,253.9732 C112.8659,234.7452 86.0509,200.4712 136.1019,190.5012 C144.4599,188.7372 158.7359,202.9722 159.0929,186.6612 C160.9569,169.1522 162.3289,145.9382 182.5319,140.4232 C208.7429,131.7892 234.5369,132.2292 259.4359,145.3292 C264.5549,148.0232 264.5999,148.1112 269.3049,143.4862 C288.1079,126.0622 358.1129,135.8552 380.9119,145.8602 C398.8209,152.4162 384.6569,165.3512 395.5829,168.8122 C449.7999,173.7332 443.3339,244.1672 397.0489,255.5872 C383.6369,258.4982 365.1929,260.9932 359.0049,245.3792 C355.8029,202.5882 229.2229,258.7322 203.0549,265.7652 C187.8689,273.8862 197.3169,304.5192 195.4929,319.6932 C199.6629,339.5582 207.7869,324.3302 196.8029,354.3702 C187.0829,371.4552 160.5969,372.6532 142.7899,371.4412 C121.5409,366.5402 110.4149,387.6802 99.9129,402.1392 C90.6679,412.4992 104.9569,422.0042 100.8509,432.9752 C101.5719,438.3052 104.0999,445.0282 96.9799,446.4242 C56.7209,460.2672 39.5529,412.1522 43.9929,381.9912" id="Fill-1" fill="#FF3B53" blush:i="0.0.0.0.0"/><path d="M153.7434,534.9824 C198.3084,533.1024 242.0484,538.2664 285.7594,546.3404 C301.9594,549.4544 292.4184,572.0494 289.4494,582.5034 C280.3134,604.9324 283.5574,629.7154 281.1484,653.4284 C279.7254,673.6224 292.3184,705.7774 267.1444,714.8754 C239.6024,726.7304 209.7054,718.3954 181.2454,714.8624 C142.8774,708.2294 103.6474,712.9004 65.5274,703.9734 C49.7794,698.7294 25.6674,706.4184 17.2344,688.6724 C2.2144,648.9714 -0.7176,603.5384 0.1334,561.4734 C34.4104,530.9754 109.8774,537.0834 153.7434,534.9824" id="Fill-3" fill="#FFC43C" blush:i="0.0.0.0.1"/><path d="M146.9655,52.8032 C145.9005,75.2132 106.2275,103.3932 89.8445,118.1132 C83.9765,123.2932 78.1155,124.6472 70.9915,120.9512 C50.8595,108.2432 24.4305,102.3062 8.1425,85.1102 C0.4845,64.9632 42.1995,24.4792 52.3695,4.5412 C59.7545,-5.9718 67.7135,4.4172 75.2525,9.2072 C98.0245,24.4682 127.4635,34.3362 146.9655,52.8032" id="Fill-6" fill="#3E5DFF" blush:i="0.0.0.0.2"/><path d="M558.2145,674.2758 C527.1745,671.5528 471.4095,656.8708 489.4975,615.1178 C496.2105,594.2348 518.1395,588.4288 536.9835,583.1888 C561.9085,576.0678 609.6335,593.7778 607.8845,623.7658 C605.0005,649.2378 586.6255,676.8788 558.2145,674.2758" id="Fill-8" fill="#3E5DFF" blush:i="0.0.0.0.3"/><path d="M360.799,308.999 C361.424,329.621 347.279,322.648 337.067,313.537 C311.028,292.587 273.172,302.813 263.863,335.3 C262.485,337.932 261.049,343.062 257.308,341.777 C227.557,328.822 250.247,298.756 263.891,281.242 C294.365,254.483 353.634,265.145 360.799,308.999" id="Fill-10" fill="#3E5DFF" blush:i="0.0.0.0.4"/><path d="M460.8166,522.7549 C482.8446,519.7239 489.8576,546.8069 471.1956,555.9829 C444.6186,564.6719 418.0386,573.3599 391.6316,582.5609 C380.6996,588.4319 370.4176,583.2249 358.7856,582.9059 C347.1666,563.8789 441.9406,522.3309 460.8166,522.7549" id="Fill-12" fill="#3E5DFF" blush:i="0.0.0.0.5"/><path d="M577.736,105.1069 C583.153,104.2459 592.073,109.0459 597.835,105.6109 C601.355,104.2649 604.121,104.6929 605.83,108.5669 C614.059,115.2659 611.618,121.3139 601.628,122.8499 C589.579,123.9109 576.832,128.6399 565.095,123.8199 C559.677,119.5999 551.924,127.1619 547.699,121.8129 C547.965,108.0149 565.973,104.2499 577.736,105.1069" id="Fill-14" fill="#3E5DFF" blush:i="0.0.0.0.6"/></g><g id="Ink" transform="translate(0.000000, 396.000000)" fill="#000" blush:i="0.0.0.1"><path d="M335.0548,129.142 C333.4448,125.469 328.4658,128.262 327.6868,131.61 C328.6798,136.161 335.2948,132.377 335.0548,129.142 M84.8378,235.86 C84.8838,232.021 81.5508,225.667 76.9578,227.464 C74.5018,230.47 82.3738,242.434 84.8378,235.86 M44.1518,291.065 C40.2968,295.16 47.9088,301.366 51.4248,300.899 C56.6828,297.789 49.4048,291.649 44.1518,291.065 M130.0618,158.87 C134.5078,154.22 128.7058,144.796 122.9418,145.204 C120.1128,150.415 124.2338,157.307 130.0618,158.87 M162.6878,295.198 C162.5848,295.203 162.4818,295.207 162.3788,295.212 C160.1888,309.08 167.6818,328.393 156.9568,338.93 C151.1458,346.319 151.8668,348.69 144.0478,341.005 C111.7598,324.272 75.6558,333.148 78.3268,375.138 C77.4118,414.315 171.6898,396.827 149.1568,412.973 C141.0938,415.333 130.2918,411.761 125.3618,420.18 C111.9938,440.446 99.3708,461.237 85.4598,481.199 C67.1488,507.897 51.6658,536.321 39.8528,566.496 C35.8318,578.352 52.9268,585.879 59.1978,594.101 C84.2888,616.345 136.8078,621.873 161.1758,596.408 C169.6948,590.428 154.9298,581.059 160.0098,572.474 C154.1528,548.807 161.8248,523.58 163.0278,499.41 C165.6938,455.446 180.0528,465.003 215.4208,463.613 C251.1028,460.311 286.7018,456.573 322.2688,451.751 C341.0388,450.519 347.3628,434.964 344.9648,418.121 C344.9388,414.468 343.8058,413.474 340.2968,414.101 C325.5498,416.872 311.7638,410.309 298.1588,405.651 C291.3508,405.784 268.2638,375.573 282.2448,377.027 C289.5168,381.277 293.8088,389.222 301.4688,392.624 C313.4958,397.729 326.7218,400.837 339.6268,397.45 C348.8388,391.683 338.8718,371.349 340.0978,361.425 C338.4248,352.434 334.1708,351.099 339.8698,341.297 C342.2888,334.232 350.7178,336.801 356.4848,333.432 C408.8278,318.172 389.8148,327.877 362.0248,285.25 C344.7138,262.671 329.0668,237.663 321.0488,210.207 C319.3208,203.913 317.8358,197.548 315.9718,191.295 C312.2388,178.784 313.9418,179.699 301.1998,182.431 C266.8888,191.78 184.9158,207.622 163.5538,233.439 C161.2908,253.771 166.7618,274.6 162.6878,295.198 M132.2108,320.296 C137.0098,317.873 145.7658,329.693 146.8018,321.658 C142.5768,294.182 149.7768,266.688 147.6658,239.071 C148.9568,226.643 154.2968,217.276 166.4238,212.057 C202.9978,196.915 240.8918,185.362 279.4518,176.599 C316.0268,167.642 321.0378,164.304 333.6748,203.293 C334.5948,205.771 336.3898,206.567 338.8328,205.438 C352.7368,196.346 374.1198,200.464 382.9658,184.824 C389.3358,173.987 397.7728,159.664 386.3408,149.218 C377.5948,141.153 366.1918,129.306 353.9598,129.105 C346.5658,142.469 320.1448,163.762 313.6468,138.361 C311.4028,125.317 322.4808,117.206 333.5678,113.663 C348.0348,105.521 325.8078,93.595 316.5978,93.672 C303.6678,91.102 238.0508,86.204 241.1608,106.554 C241.7038,113.902 240.8638,121.027 233.0128,123.493 C221.1648,127.868 219.9558,109.514 224.5938,102.536 C226.9578,98.23 226.0558,96.069 221.6618,93.822 C187.1518,79.762 141.1968,90.549 126.8518,127.956 C125.1748,131.96 125.2008,132.86 129.1158,134.912 C161.6468,157.157 122.8018,183.138 112.7218,155.7 C111.1358,152.24 112.2568,145.119 106.7908,145.609 C74.7438,148.204 67.7648,185.213 72.4008,211.309 C78.8408,222.16 96.3638,215.654 94.4308,237.704 C94.0898,248.511 77.2418,254.717 70.8818,245.397 C64.3558,240.33 65.4538,225.425 55.7088,226.459 C29.4268,229.724 31.2988,257.902 36.2038,277.437 C38.0998,284.359 48.4808,282.719 53.6368,286.41 C79.3588,304.134 39.0848,320.791 31.0678,295.38 C24.9218,288.989 20.6048,303.435 16.7028,306.965 C1.6358,336.864 34.8728,364.998 53.0078,385.434 C55.5518,387.964 66.6118,398.173 65.4668,389.287 C48.7678,345.174 87.2508,298.493 132.2418,320.192 C130.8578,320.22 129.3048,319.517 128.2288,320.691 C129.5328,320.384 130.8818,320.413 132.2108,320.296 M191.8108,78.373 C205.8838,78.987 219.4258,81.074 231.5968,88.581 C234.4148,90.32 236.8608,90.302 239.7408,88.876 C250.7108,83.447 262.6148,82.093 274.5998,80.999 C294.7338,80.181 315.6898,79.59 335.0428,85.709 C356.8498,91.866 347.2668,108.279 360.0668,115.342 C380.5558,124.379 408.4338,139.654 406.3778,165.593 C381.5728,266.131 276.9378,145.903 399.5788,311.069 C427.9558,340.603 374.7668,335.854 358.6678,348.446 C353.2638,351.089 352.8558,352.234 353.5918,357.848 C355.7768,390.551 373.4848,445.537 334.2428,461.426 C288.1548,472.703 240.2418,476.461 193.1428,481.765 C189.8848,482.336 184.6698,481.606 184.4128,486.128 C188.4228,521.442 170.3608,557.751 180.3458,591.772 C184.8598,602.788 170.8648,610.812 163.5978,616.563 C115.3978,646.008 49.2688,624.145 19.5878,577.945 C13.7488,569.281 15.3678,570.909 20.9328,561.939 C21.3858,561.209 22.8108,560.503 23.6078,560.664 C34.1478,562.371 50.5888,506.867 57.0268,496.321 C62.0468,484.619 67.4398,473.149 76.9208,464.195 C84.6018,447.355 95.4878,432.547 107.1248,418.001 C109.7318,410.262 90.2098,411.369 85.0358,408.051 C73.9578,405.439 65.6458,414.401 54.6778,406.565 C19.3488,383.674 -25.0152,324.194 17.2428,288.231 C28.5868,283.42 23.7718,273.104 22.0378,263.802 C17.7088,242.208 30.7058,219.841 53.2508,217.123 C70.0758,212.985 39.6378,151.066 102.4358,134.534 C133.4888,126.52 114.1918,80.636 191.8108,78.373" id="Fill-1" blush:i="0.0.0.1.0"/><path d="M438.0138,491.5282 C412.1238,468.8472 376.8468,502.0472 351.8368,513.1612 C345.7618,518.1712 333.0478,521.1592 331.6128,529.0832 C362.5098,519.5092 422.3598,523.7462 438.0138,491.5282 M420.3938,471.7442 C456.4878,472.6572 458.0858,500.7822 430.4048,518.1292 C410.9508,530.8832 386.8958,531.3362 364.7918,536.3142 C344.4438,540.0222 325.6658,549.4802 304.8868,551.3592 C292.4098,551.2272 287.1958,564.5822 276.3298,567.9562 C271.3258,573.8442 266.6728,580.4142 259.8958,584.7942 C247.0208,596.4492 234.1838,608.1232 224.1018,622.4162 C218.6278,628.9152 215.8448,639.4702 208.1618,643.2302 C232.7438,570.6212 345.1958,484.7382 420.3938,471.7442" id="Fill-3" blush:i="0.0.0.1.1"/><path d="M404.7887,424.0004 C424.8737,419.8614 437.6687,399.8934 452.8197,387.1984 C468.5267,379.5744 488.1017,302.7204 458.1137,340.3314 C444.5537,371.3624 429.1637,399.9224 404.7887,424.0004 M487.6807,340.9764 C487.0377,375.6494 463.3947,400.5214 437.2817,420.5084 C425.1097,429.5354 399.6087,447.3514 385.5097,440.4994 C397.7397,429.1714 401.9397,410.9034 414.4677,399.0844 C423.2797,388.7054 429.6987,377.1164 434.2877,364.3524 C438.4867,351.5214 445.0527,339.8874 452.8147,328.9054 C465.6107,310.8514 490.9027,317.1544 487.6807,340.9764" id="Fill-6" blush:i="0.0.0.1.2"/><path d="M421.9679,80.3109 C420.3169,65.4519 418.3229,50.4549 415.1789,35.6019 C407.9009,7.4879 385.1009,14.7849 399.6599,39.9759 C408.1599,44.4449 417.9509,88.4889 421.9679,80.3109 M436.5059,88.2619 C435.4229,104.2289 440.3289,131.1939 426.7909,141.5149 C423.6569,137.5239 425.0409,130.0359 424.4899,124.9389 C425.6509,104.2479 410.1509,88.3189 403.7749,69.5499 C392.5089,48.4389 373.7529,27.9599 392.7779,4.5829 C396.8719,-0.2131 400.8859,-1.4471 406.0779,1.8459 C438.4569,17.3309 433.6379,57.8789 436.5059,88.2619" id="Fill-8" blush:i="0.0.0.1.3"/><path d="M465.7804,176.6469 C484.8984,171.5829 505.2594,173.2389 523.6714,165.2939 C536.8884,161.1399 536.6854,136.6489 520.2464,141.1179 C503.1254,144.0579 487.8084,150.9019 474.7694,162.4869 C472.3204,166.2819 459.0584,173.0479 465.7804,176.6469 M527.6464,131.9539 C550.3614,133.2529 547.1974,168.0389 532.5384,173.2979 C521.4914,179.1089 508.7164,179.1719 496.7354,181.7439 C458.7674,186.5849 442.5534,198.5759 427.7634,233.6869 C426.9444,236.6679 421.4044,240.1359 421.1304,235.0429 C430.5854,182.1379 470.7164,133.5099 527.6464,131.9539" id="Fill-10" blush:i="0.0.0.1.4"/><path d="M532.7565,70.1303 C538.1275,71.0973 560.5045,67.3773 557.8165,61.2543 C547.4505,52.9293 525.6365,60.1093 516.2065,67.6043 C520.7945,71.0543 525.2335,69.0073 532.7565,70.1303 M475.6285,103.1673 C479.5015,70.3403 518.7075,42.4893 551.5195,44.8473 C592.2505,53.4413 562.6755,89.4263 533.5375,83.1113 C511.5765,79.4713 487.3735,81.1353 475.6285,103.1673" id="Fill-12" blush:i="0.0.0.1.5"/><path d="M304.9381,276.8344 C299.9811,273.4054 284.1681,251.0454 281.0701,263.5164 C284.5871,286.3174 282.5531,304.0154 304.9381,276.8344 M258.7091,293.6164 C256.5641,287.2264 261.9741,262.3874 253.0491,263.8104 C244.0611,266.9524 227.0441,281.0124 230.7301,290.3344 C236.6791,292.1404 259.2441,305.6604 258.7091,293.6164 M276.7961,243.0694 C297.9271,242.0084 298.3831,253.4934 311.9241,262.1904 C353.3291,275.0614 268.2691,326.9284 235.7751,303.8084 C190.2181,292.4134 242.5661,238.2934 276.7961,243.0694" id="Fill-15" blush:i="0.0.0.1.6"/><path d="M272.8507,204.9169 C266.1657,217.8519 245.7217,216.1519 233.7567,222.9889 C229.3017,224.3819 208.3387,239.4079 214.9817,225.4779 C229.1907,212.3579 254.0247,194.7969 272.8507,204.9169" id="Fill-17" blush:i="0.0.0.1.7"/><path d="M140.7125,369.4018 C135.9405,368.8058 91.0485,367.4288 107.3535,358.9418 C120.2365,357.9738 137.9035,354.4628 147.7235,364.5978 C150.6525,369.4528 143.8865,369.8478 140.7125,369.4018" id="Fill-19" blush:i="0.0.0.1.8"/></g></g></g><g id="Color/Top" blush:width="1040" blush:height="1040" blush:component="Color/Top" blush:i="0.1" blush:value="Camera" transform="scale(1 1)"><g id="Color/Top/Camera" stroke="none" stroke-width="1" fill="none" fill-rule="evenodd" blush:i="0.1.0"><g id="Color" transform="translate(476.000000, 153.000000)" blush:i="0.1.0.0"><path d="M448.62005,172.464967 C431.528052,170.40549 412.815858,171.239782 395.935402,176.778395 C390.481131,178.542272 384.524814,180.698986 379.238217,177.215961 C398.907711,165.742981 381.113823,142.004541 377.097452,125.853495 C372.024347,108.032892 365.353467,91.0611662 350.898431,78.6440163 C321.159739,62.6679965 294.868107,36.2574869 259.005424,34.2271808 C212.221526,31.4277309 149.707492,39.7239817 132.286971,90.617766 C126.925311,103.851706 104.380017,187.710738 137.914765,169.45743 C146.04889,156.753432 140.922168,139.192451 149.842021,126.475811 C146.509018,142.652139 154.470596,165.574762 139.735779,176.78034 C104.795302,180.796223 69.1597583,178.885518 34.5624271,187.557104 C-5.79430202,193.256157 6.56091284,142.528648 4.66678451,117.423057 C4.2544241,91.7855809 1.84265184,65.859311 5.69427358,40.3939438 C6.11735731,37.0062109 5.76543743,34.3924835 2.10488577,32.5488722 C-11.8744247,6.27157707 47.8203506,13.7724302 62.1730276,10.4313709 C93.0279199,14.0155224 122.17488,3.25626134 152.837727,4.17806699 C205.867471,5.66481892 258.894291,4.03804588 311.839224,1.3611145 C362.371409,-1.63572621 413.136583,0.0892560819 462.991249,8.8094597 C475.333791,16.790663 467.510641,42.9337712 471.488993,56.5615203 C469.856124,91.3791308 487.954164,124.377439 481.668349,159.105592 C480.686678,174.624598 459.589032,169.312547 448.62005,172.464967" id="Fill-1" fill="#3BC5FF" blush:i="0.1.0.0.0"/><path d="M149.921131,126.491147 C141.015146,139.234861 146.134457,156.83091 138.011116,169.559034 C104.37299,187.806933 127.188432,103.767017 132.393405,90.5624284 C154.691951,31.1437296 240.353527,22.228294 292.327332,43.4431333 C312.311042,49.5465528 324.893702,66.4050082 343.61389,74.1570525 C360.744453,83.2488481 369.761409,101.948852 374.905056,119.902494 C378.826065,135.603404 403.522188,178.191904 372.794642,175.911891 C361.173739,173.771212 360.082515,134.782015 350.271232,122.023685 C343.655747,98.0231377 322.681077,87.1813834 302.844357,75.2415203 C273.869973,54.713608 235.916596,54.8773013 202.330063,63.6680182 C170.444125,69.1244596 162.689718,101.525978 149.921131,126.491147" id="Fill-3" fill="#3C5BFF" blush:i="0.1.0.0.1"/><path d="M109.226676,180.588373 C148.236827,162.504288 184.924044,201.848413 144.22219,229.530747 C133.935047,236.031242 122.285414,228.114323 112.608138,223.909041 C97.6333673,215.901213 100.425356,192.657788 109.226676,180.588373" id="Fill-5" fill="#FF3C54" blush:i="0.1.0.0.2"/><path d="M76.0852029,282.4773 C75.0929797,271.861554 82.8716166,259.238666 93.9501325,259 C107.218416,262.888104 130.944339,260.972907 131.720435,279.343342 C136.625554,328.57994 75.3493859,332.036685 76.0852029,282.4773" id="Fill-7" fill="#FF3C54" blush:i="0.1.0.0.3"/><path d="M387.251219,279.928708 C333.419552,275.135894 353.549615,210.822256 399.544922,230.85616 C428.599405,240.821971 415.825905,281.939625 387.251219,279.928708" id="Fill-9" fill="#FF3C54" blush:i="0.1.0.0.4"/><path d="M448.442917,173.152161 C471.677663,171.404483 497.341188,209.541347 474.185663,225.252093 C429.476408,245.869669 408.330375,193.489568 448.442917,173.152161" id="Fill-11" fill="#FF3C54" blush:i="0.1.0.0.5"/><path d="M81.8270647,233.793588 C80.3954537,279.119188 11.0734073,260.155161 30.3991906,218.614351 C38.0634295,187.63811 85.2051645,208.086925 81.8270647,233.793588" id="Fill-14" fill="#FF3C54" blush:i="0.1.0.0.6"/><path d="M50.5112413,325.747598 C38.4574476,328.521946 26.7628762,334.38662 16.1614635,324.410315 C10.4342413,320.865098 3.48992381,318.103467 4.1231619,309.989772 C3.33500317,270.618685 73.9507333,282.895859 62.8874635,318.137707 C60.026273,325.831728 58.6164952,326.936185 50.5112413,325.747598" id="Fill-16" fill="#FF3C54" blush:i="0.1.0.0.7"/><path d="M332.901565,281.489088 C370.53338,276.940589 365.102024,346.249055 331.733697,316.597782 C327.877222,309.603456 321.057573,314.252082 316.944901,318.636294 C276.302541,339.176961 306.072521,274.805838 332.901565,281.489088" id="Fill-19" fill="#FF3C54" blush:i="0.1.0.0.8"/><path d="M196.653421,287.027856 C233.834106,290.106004 235.483995,336.045321 195.390822,318.71764 C184.240626,314.959233 174.028334,339.448557 163.88059,323.612399 C145.693673,304.798046 183.217636,286.180686 196.653421,287.027856" id="Fill-21" fill="#FF3C54" blush:i="0.1.0.0.9"/><path d="M413.278452,309.894406 C407.44286,269.417429 495.476132,276.440416 476.24784,308.904803 C464.255761,324.767467 449.597041,300.581693 436.712506,309.369133 C430.145392,314.907232 413.931945,325.378834 413.278452,309.894406" id="Fill-23" fill="#FF3C54" blush:i="0.1.0.0.10"/><path d="M266.786183,286.493168 C255.654863,287.618814 223.595681,268.993698 245.461998,255.875589 C247.419154,253.863857 249.366523,253.065321 251.654438,255.545592 C257.337038,260.980443 262.510778,265.020262 270.098669,259.915408 C300.911142,241.480786 301.430767,292.579355 266.786183,286.493168" id="Fill-25" fill="#FF3C54" blush:i="0.1.0.0.11"/></g><g id="Ink" transform="translate(326.000000, 0.000000)" fill="#000" blush:i="0.1.0.1"><path d="M326.024353,159.994796 L326.478047,159.271759 L317.930879,159.271759 L317.948403,159.994796 L326.024353,159.994796 Z M234.565078,151.212962 C226.629326,114.561486 229.481952,128.074778 195.542519,130.554183 C187.69439,133.680516 192.712286,146.132182 191.326863,152.901025 C188.761447,161.674078 229.127564,152.643425 234.565078,151.212962 L234.565078,151.212962 Z M411.466826,100.08024 C411.460011,100.016816 411.45417,99.9533916 411.447354,99.8899672 C390.285349,101.694146 369.26062,104.344309 348.347854,108.041461 C339.467717,112.24796 310.564678,107.901928 310.017519,118.653821 C312.50018,126.911673 307.805517,148.34618 320.620915,146.908887 C353.828206,142.195969 387.67028,148.265192 420.988561,143.713275 C435.056971,142.672139 424.577222,121.585978 426.036637,112.210882 C425.570287,99.8021489 426.507856,99.3503723 411.466826,100.08024 L411.466826,100.08024 Z M498.944108,314.005737 C495.534587,239.759227 403.655694,206.037956 340.74215,226.28594 C306.3646,239.996336 297.828142,290.577753 301.57842,323.882374 C308.149195,374.820919 368.276318,396.346172 412.865879,401.899219 C465.18479,408.420219 501.009098,363.543092 498.944108,314.005737 L498.944108,314.005737 Z M151.697756,249.4895 C159.99179,337.532273 126.097143,325.885608 198.500293,322.820748 C221.203495,324.061914 243.584438,320.389155 266.162047,319.799797 C288.925612,325.47091 262.331935,332.722754 252.99713,332.292444 C147.989343,352.866332 152.292621,306.311874 157.87228,381.938108 C160.134909,405.47928 161.903926,429.244877 165.221929,452.647491 C166.191627,459.710038 166.858538,461.978678 176.355932,461.226368 C206.856637,456.98279 236.700166,466.941391 267.219369,466.606705 C305.037594,467.015549 342.851925,468.350387 380.627312,465.916843 C425.888651,465.025975 471.09547,463.154468 516.294499,460.566754 C540.021921,456.788614 605.220487,460.163766 618.210157,442.93283 C621.038443,410.59909 613.622589,377.943349 614.551397,345.416409 C614.626363,342.146639 614.409252,337.093181 610.058267,337.373224 C579.009431,338.558772 547.799951,337.373224 516.72288,337.352733 C509.385887,338.534378 511.128618,349.83855 508.790049,355.415991 C481.546011,457.973186 302.109028,421.015322 282.917573,331.122509 C256.225563,178.982099 451.69664,160.158724 507.590583,279.921485 C530.212003,345.474954 488.61916,318.50594 574.343976,320.041785 C584.855853,317.829738 609.522792,325.248437 614.600076,315.806989 C619.800034,269.46915 619.808796,223.338171 619.564424,176.846162 C620.030775,173.17633 620.421186,167.728666 615.439313,167.672072 C590.433564,165.790807 565.305143,164.68332 540.425962,161.651636 C488.45657,160.208488 438.220173,160.491458 386.974161,160.89835 C320.022155,162.133661 253.748744,163.389463 187.350712,172.834815 C176.304332,174.39603 163.210487,172.666008 152.995555,176.698822 C149.276432,199.316926 150.968536,225.748297 151.697756,249.4895 L151.697756,249.4895 Z M638.942808,250.334507 C634.944264,295.591205 634.480834,344.037661 637.415242,389.772481 C638.459906,408.077728 640.671909,426.559587 639.801517,444.841416 C638.307052,456.705674 627.230491,449.989522 622.320664,455.840176 C613.049143,472.632996 567.590165,470.141882 549.301231,472.278795 C495.84419,480.685938 440.836216,480.277095 386.707397,481.199188 C350.063324,483.1429 313.318971,482.749669 276.62914,482.869688 C241.867021,484.481642 208.055129,470.493155 173.449759,476.445288 C143.28397,484.565558 146.470538,386.63639 142.314272,366.325958 C133.03691,327.354126 135.762969,287.753905 134.208142,248.045376 C133.286149,221.41007 135.299539,193.897558 142.819567,168.472194 C150.804972,163.173821 161.966236,163.32116 171.13845,160.747107 C182.165359,160.861271 162.279733,119.768138 181.099275,114.158497 C200.074592,110.653569 219.685664,108.465917 238.976425,108.090249 C258.532003,108.910863 252.389608,133.39657 253.881152,146.731299 C254.015508,153.749936 262.570465,150.837294 266.876664,150.011802 C274.230208,146.086322 288.67832,147.198687 292.016768,139.254054 C293.671876,126.310605 281.610039,103.56175 297.790172,97.85063 C339.364517,92.7083778 381.646663,84.7842355 423.936598,84.908157 C455.588089,77.4406701 443.893297,117.930783 449.336652,136.615601 C456.521764,148.306174 482.428086,142.239878 495.261981,143.796214 C529.981262,143.176607 564.331551,148.655496 599.042069,148.294465 C622.830827,148.361793 632.896799,150.872422 633.21127,177.614084 C635.541076,202.140773 638.227218,225.53363 638.942808,250.334507 L638.942808,250.334507 Z" id="Fill-1" blush:i="0.1.0.1.0"/><path d="M27.4419277,183.337 C16.6863738,183.522 -14.3261031,178.321 7.74812769,167.644 C24.6699277,163.572 42.0259431,165.172 58.63662,170.026 C66.4883585,171.937 59.7900046,180.43 54.3749123,180.43 C45.7119277,180.485 35.7879738,183.326 27.4419277,183.337" id="Fill-3" blush:i="0.1.0.1.1"/><path d="M552.572042,587.186135 C552.631458,594.691153 552.708125,602.154935 554.938167,609.442971 C556.289417,614.137044 549.787125,613.545007 547.654833,611.32708 C537.62875,600.418098 532.811208,587.353044 533.087208,572.422535 C539.28475,543.059298 557.068542,569.616498 552.572042,587.186135" id="Fill-6" blush:i="0.1.0.1.2"/><path d="M558.792925,30.0750837 C564.333026,29.2683681 569.531956,36.1643291 565.657513,40.3718859 C554.254768,47.0287481 534.879612,73.7067382 521.703368,63.8317608 C515.820136,53.9703907 548.480358,28.4392976 558.792925,30.0750837" id="Fill-9" blush:i="0.1.0.1.3"/><path d="M643,550.706179 C639.079729,566.963435 624.333215,541.108746 621.209787,535.488204 C619.633809,526.466735 599.773726,519.218215 607.979242,512.453582 C625.694734,500.275088 641.634546,536.668538 643,550.706179" id="Fill-11" blush:i="0.1.0.1.4"/><path d="M242.409854,40.0079302 C232.920098,47.4204419 212.553268,19.0264884 206.657659,11.6325349 C201.957171,4.9857907 202.460585,1.02997674 211.05961,1.59453488 C224.837171,-4.80411628 238.616683,29.5186744 242.409854,40.0079302" id="Fill-13" blush:i="0.1.0.1.5"/><path d="M45,239.752602 C41.8000297,250.743507 3.7822988,285.491948 7.2195183,257.082307 C15.1114283,247.975724 34.4761675,222.747713 45,239.752602" id="Fill-16" blush:i="0.1.0.1.6"/><path d="M66.0268507,368 C99.8571629,372.655654 27.4490252,397.579081 23.0037953,389.344604 C22.5929246,376.765173 55.6572564,370.840672 66.0268507,368" id="Fill-18" blush:i="0.1.0.1.7"/><path d="M83.8415739,102.973325 C81.0592608,117.743439 41.9997904,87.7826777 40,78.9237757 C39.8921249,67.3576296 87.069758,93.1803445 83.8415739,102.973325" id="Fill-20" blush:i="0.1.0.1.8"/><path d="M681.627317,330.331418 C693.005854,332.686282 708.982439,334.673645 713.963902,346.355373 C714.637073,356.029691 689.387317,346.091918 682.84,346.635055 C673.422439,346.467055 669.601951,329.192645 681.627317,330.331418" id="Fill-22" blush:i="0.1.0.1.9"/><path d="M647.943442,113 C628.39367,109.957917 672.677391,80.2777645 679.487826,80.0034381 C680.889606,79.9191808 682.347264,81.3995633 681.926248,82.685958 C678.473342,98.7761785 662.608661,109.105545 647.943442,113" id="Fill-25" blush:i="0.1.0.1.10"/><path d="M414,547.141231 C414.802002,541.735692 415.994871,525.062765 424.183784,529.855013 C432.378486,537.450457 432.397789,537.458257 428.376198,547.544891 C421.056845,569.487828 414.806827,574.82804 414,547.141231" id="Fill-27" blush:i="0.1.0.1.11"/><path d="M400,17.733603 C405.892871,-15.46165 418.765058,25.4554725 407.581239,36.6048369 C399.572187,39.7980398 402.312178,22.7396393 400,17.733603" id="Fill-29" blush:i="0.1.0.1.12"/><path d="M539.557268,210.985179 C541.387218,222.793022 521.833683,227.499311 512.449047,228 C497.265967,227.39879 500.512114,210.07379 510.24957,206.169754 C518.637659,202.323157 543.617162,194.718998 539.557268,210.985179" id="Fill-31" blush:i="0.1.0.1.13"/><path d="M260.60068,264 C254.177187,261.890901 229.537849,253.353181 234.707576,244.414103 C238.829438,243.00443 237.084607,235.803588 241.554468,236.038697 C252.575422,234.825769 286.20475,262.518515 260.60068,264" id="Fill-33" blush:i="0.1.0.1.14"/><path d="M297,215.405819 C295.955989,228.200882 267.22601,211.584105 271.41742,198.319658 C273.84352,192.346118 282.843909,196.193909 287.674018,196.509729 C295.274069,198.854718 295.684182,209.021809 297,215.405819" id="Fill-35" blush:i="0.1.0.1.15"/><path d="M428,186.648693 C428.792338,179.544586 443.43978,169.104915 446.914861,179.159825 C448.32947,195.448065 431.699216,214.916616 428,186.648693" id="Fill-37" blush:i="0.1.0.1.16"/><path d="M366.847819,179.425264 C366.151089,189.574807 364.800636,202.03719 355.984942,187.084888 C352.649428,180.596933 346.137054,173.343605 353.069952,166.515266 C360.700535,161.327853 368.165777,170.407055 366.847819,179.425264" id="Fill-39" blush:i="0.1.0.1.17"/><path d="M460.768586,315.795997 C459.475546,291.87703 448.974578,270.432573 429.445677,258.549079 C413.729738,248.829319 424.660746,269.852914 424.720096,277.783038 C430.147169,307.369023 427.988209,338.22636 418.358025,366.764088 C417.643885,368.586848 419.404911,370.2323 421.329391,369.772469 C445.15286,362.95003 461.589749,340.491414 460.768586,315.795997 M339.233481,305.392337 C338.317942,351.796224 409.06156,386.830028 388.450747,359.660101 C364.653548,328.014622 372.020668,282.5869 381.797767,247.910633 C355.291896,252.751515 340.857322,280.140642 339.233481,305.392337 M476,311.232766 C476.019459,409.823489 344.522396,402.054112 326.781763,317.119957 C294.867305,206.590209 475.422072,197.54071 476,311.232766" id="Fill-41" blush:i="0.1.0.1.18"/></g></g></g></g></svg>