<svg xmlns="http://www.w3.org/2000/svg" viewBox="0 0 129.03 387.47"><defs><style>.cls-1{fill:#f9a9a3;}.cls-2{fill:#04446f;}.cls-3{fill:#ffb1a5;}.cls-4{fill:#001e3b;}.cls-5{fill:#fff;}.cls-10,.cls-12,.cls-13,.cls-6,.cls-7,.cls-9{fill:none;}.cls-6{stroke:#e2e2e2;}.cls-10,.cls-6,.cls-9{stroke-miterlimit:10;}.cls-6,.cls-9{stroke-width:1.01px;}.cls-7{stroke:#001e3b;stroke-width:2.02px;}.cls-12,.cls-13,.cls-7{stroke-linecap:round;stroke-linejoin:round;}.cls-8{fill:#33c5a9;}.cls-9{stroke:#0c9f8c;}.cls-10,.cls-12,.cls-13{stroke:#111d36;}.cls-10{stroke-width:1.04px;}.cls-11{fill:#111d36;}.cls-12{stroke-width:0.8px;}.cls-13{stroke-width:0.79px;}.cls-14{fill:#f53f5f;}</style></defs><g id="Camada_2" data-name="Camada 2"><g id="OBJECTS"><path class="cls-1" d="M126.07,186.57v10.34a14,14,0,0,1-2.66,8.22L113.18,219.3V181.79Z"/><path class="cls-2" d="M115.14,65.44s6.94.06,9,21S129,192.27,129,192.27l-23.12-1.48V88.14Z"/><polygon class="cls-3" points="54.83 316.14 53.54 345.5 64.87 345.93 67.18 311.29 54.83 316.14"/><path class="cls-4" d="M37.68,377s-2.63,9.46,9.52,10.29c11.24.76,19.6,1,18-29.45Z"/><path class="cls-5" d="M53.54,345.5S39,369.72,37.71,377s21.22,11.61,25.1,0,2.06-31,2.06-31Z"/><path class="cls-6" d="M40.45,369.52s12.33-5.91,23.56,2.61"/><line class="cls-7" x1="49.39" y1="361.51" x2="58.26" y2="362.33"/><line class="cls-7" x1="50.75" y1="357.87" x2="58.96" y2="358.64"/><line class="cls-7" x1="52.48" y1="354.27" x2="59.67" y2="354.94"/><polygon class="cls-8" points="55.63 145.5 45.93 332.66 69.27 333.22 84.85 182.31 55.63 145.5"/><line class="cls-9" x1="46.48" y1="322.14" x2="70.42" y2="322.14"/><path class="cls-4" d="M77.06,355.93l-.51,2.95s9.85,3.82,13.23,5.94,29.24,15.62,33.77,5.84l-32.47-14Z"/><path class="cls-3" d="M81.72,324.17c-.29.86-2.89,20.14-2.89,20.14H90.36c.63-1.95,5.32-22.17,5.32-22.17Z"/><path class="cls-5" d="M78.83,344.31,77.1,355.93l11.84,4.41a16.42,16.42,0,0,1,2.61,1.24c4.65,2.74,22,12.32,32,9.08,0,0,6.93-13.29-11.55-17.91s-21.68-8.44-21.68-8.44Z"/><path class="cls-6" d="M112,352.75s-8.56,1.18-10.62,13.91"/><line class="cls-7" x1="101.95" y1="353.81" x2="104.34" y2="350.49"/><line class="cls-7" x1="98.36" y1="352.4" x2="100.56" y2="349.33"/><line class="cls-7" x1="95.11" y1="350.49" x2="96.9" y2="348"/><path class="cls-6" d="M78.08,349.33s8.54,1.75,6.29,9.31"/><polygon class="cls-8" points="84.85 182.31 91.86 236.29 79.28 333.22 100.72 331.98 115.55 235.76 116.73 175.68 84.85 182.31"/><line class="cls-9" x1="80.85" y1="321.16" x2="102.39" y2="320.12"/><path class="cls-5" d="M114.41,147.27l6.8,36.66S88,205.1,45.93,191.06l7.32-43.18Z"/><path class="cls-2" d="M48.45,74.35l7.61-6,17.21-3.63,26.68-6,15.19,6.72s9.68,72.9,4.58,89.21c0,0-45.22,13.5-70.88,3.69L50.4,93.69,46.2,80.91A5.87,5.87,0,0,1,48.45,74.35Z"/><path class="cls-10" d="M116.74,80.69l3.53,56.44a29.28,29.28,0,0,1-5.14,18.5l-.29.42"/><path class="cls-1" d="M78.75,169.31,68,161.89l1.47-2.38a2.26,2.26,0,0,0-3-3.15L53,160.29l-7.18,10.89c5.53,6.18,9.62,6.66,12.11,5.93.26.13.52.27.78.38l9.24,4a1.85,1.85,0,0,0,2.47-.54c.4-.59.65-1.58-1.08-2.76l1.73,1.18a1.91,1.91,0,0,0,2.59-.6c.52-.76.16-1.91-.83-2.76l1.34.74A2,2,0,0,0,77,176a2,2,0,0,0-.73-2.57l-1.91-1.3,2.35.91a2.14,2.14,0,0,0,2.91-1A2.21,2.21,0,0,0,78.75,169.31Z"/><polygon class="cls-2" points="20.2 102.91 62.35 156.05 46.84 171.18 3.46 126.92 20.2 102.91"/><path class="cls-2" d="M55,69.48s-27.7,16.73-50.19,37.3a14.51,14.51,0,0,0-1.3,20.14h0c4.65,5.42,12.56,2.42,18.62-1.36L69,94.31Z"/><line class="cls-10" x1="49.66" y1="106.84" x2="61.67" y2="98.5"/><line class="cls-10" x1="31.85" y1="118.37" x2="20.84" y2="118.37"/><polyline class="cls-10" points="49.26 140.82 61.34 156.05 58.72 158.61"/><path class="cls-2" d="M81.21,38.28c-.51.72-17.87-2.58-24,11.82s-1.19,18.21-1.19,18.21l30.17,3.92s6.48,2.48,11.17-5.67,3.47-21.78-4.35-24.34S81.21,38.28,81.21,38.28Z"/><path class="cls-10" d="M56.06,68.31S64.78,74,86.23,72.23"/><path class="cls-10" d="M100,58.72s-.14,4.66-2.55,7.84"/><path class="cls-11" d="M76.22,61.3s-10.8-12.07-1.07-18.79,25.28,8.56,18.56,24.05Z"/><path class="cls-3" d="M93,54c-.23-4.22-.42-7.8-.42-7.8A19.41,19.41,0,0,1,86.41,49a9.41,9.41,0,0,1-5.83-1.2l-3.43-2s0,.75-.11,2c-.19,3.05-.55,9-.82,13.57a13.92,13.92,0,0,0,10.53,6c.18,0,.35,0,.54.06a19.11,19.11,0,0,0,3.15,0,9.24,9.24,0,0,0,3.27-.81C93.59,64.47,93.28,58.79,93,54Z"/><path class="cls-11" d="M76.46,46.44s4.76,8.7,10.44,7.45c5.92-1.3,6.15-8.88,6.15-8.88Z"/><path class="cls-3" d="M100.82,22.43A74.61,74.61,0,0,1,99,38.87c-.9,4-3.44,6.77-7,9l-.66.41a12.18,12.18,0,0,1-12.56.14h0c-3.89-2.31-6.62-5.34-7.46-9.62a110.36,110.36,0,0,1-1.69-16.38S68.12,5.67,85,6,100.82,22.43,100.82,22.43Z"/><path class="cls-3" d="M71.41,38.18c-3,2.56-9.22-7.59-6.35-10.33S70,29.57,70,29.57l.59,3.21.86,4.31.23,1Z"/><path class="cls-12" d="M66.36,31.27s1.21-2.63,4,2"/><path class="cls-3" d="M99,38.24c3,2.51,9.09-7.75,6.16-10.44s-4.88,1.8-4.88,1.8l-.52,3.22-.8,4.33-.2,1Z"/><path class="cls-12" d="M103.9,31.25s-1.26-2.61-4,2"/><path class="cls-11" d="M79.28,27.92a1.55,1.55,0,1,1-1.55-1.55A1.55,1.55,0,0,1,79.28,27.92Z"/><path class="cls-11" d="M93.67,27.92a1.56,1.56,0,1,1-1.56-1.55A1.56,1.56,0,0,1,93.67,27.92Z"/><path class="cls-13" d="M84.14,31.42v2a.82.82,0,0,0,1,.82L86.23,34"/><path class="cls-11" d="M87.33,22.22l9,2.32s-.4-2.52-4.07-3.43S87.33,22.22,87.33,22.22Z"/><path class="cls-11" d="M81.76,22.22l-9,2.32s.41-2.52,4.08-3.43S81.76,22.22,81.76,22.22Z"/><path class="cls-13" d="M79.28,35.7S81.11,39,88,37.89"/><path class="cls-11" d="M70.1,30.29s3.6-11.59,1-19.09C71.1,11.2,63,15.23,70.1,30.29Z"/><path class="cls-11" d="M100.14,30.29S95.61,18.7,98.21,11.2C98.21,11.2,106.39,14.31,100.14,30.29Z"/><path class="cls-14" d="M67,18.74h35.46S104.61-.09,84.69,0,67,18.74,67,18.74Z"/><path class="cls-11" d="M78.07,15.33H91.18s-.54-4.95-6.49-5.08S78.07,15.33,78.07,15.33Z"/><rect class="cls-14" x="52.54" y="16.75" width="14.84" height="2"/></g></g></svg>