<svg xmlns="http://www.w3.org/2000/svg" xmlns:xlink="http://www.w3.org/1999/xlink" viewBox="0 0 209.08 207.04"><defs><style>.cls-1,.cls-11{fill:none;}.cls-2{opacity:0.7;}.cls-3{fill:#e1f0ff;}.cls-4{clip-path:url(#clip-path);}.cls-5{fill:#161114;}.cls-6{fill:#8e3e30;}.cls-7{fill:#723021;}.cls-8{fill:#86c1e2;}.cls-9{fill:#d84848;}.cls-10{fill:#5e1d12;}.cls-11{stroke:#fff;stroke-linecap:round;stroke-miterlimit:10;stroke-width:1.11px;}.cls-12{fill:#c43333;}.cls-13{fill:#fff;}</style><clipPath id="clip-path"><path class="cls-1" d="M178.58,174.81q-30.79,30.8-73.39,29.48t-74-32.77Q-.95,139.44,0,100.43T29.84,32.61A110.07,110.07,0,0,1,76.69,4.76a108.23,108.23,0,0,1,54.72-2.29A92.93,92.93,0,0,1,178.58,28q29.47,29.49,30.47,72.41T178.58,174.81Z"/></clipPath></defs><g id="Camada_2" data-name="Camada 2"><g id="OBJECTS"><g class="cls-2"><path class="cls-3" d="M178.58,174.81q-30.79,30.8-73.39,29.48t-74-32.77Q-.95,139.44,0,100.43T29.84,32.61A110.07,110.07,0,0,1,76.69,4.76a108.23,108.23,0,0,1,54.72-2.29A92.93,92.93,0,0,1,178.58,28q29.47,29.49,30.47,72.41T178.58,174.81Z"/></g><g class="cls-4"><path class="cls-5" d="M95.76,146.18s-5.69,9.65-23.93-.13c-15.6-8.35-5.4-19.55-5.4-19.55s-10.69,6.85-15,1.73,9.7-9.32,9.7-9.32S34,123.22,32.9,107.07,53.63,93.89,53.63,93.89,26,87.26,33,67,57.9,53.58,57.9,53.58,40.36,49.76,42.13,42.76,60.9,46.09,60.9,46.09s-14.79-15.51-.42-31S95.22,25.73,95.22,25.73,92.73,9.6,103.81,5.16s7.57,20,7.57,20-1.47-21.89,15.54-18.7,6.43,30.29,6.43,30.29S142,11.28,160.14,22.3s4.22,35.47-3.86,39.57,7.33-16.66,17.09-5.14-16.05,14.16-16.05,14.16,23.75-6.38,26.92,12.93-24.42,21.8-24.42,21.8,11.38-.85,11.78,8.71-17.29.36-17.29.36,13.86,12.45,4.6,23.59-24.54-5.59-24.54-5.59,7.4,11.32-2.45,15.28-16.22-12.65-16.22-12.65Z"/><path class="cls-6" d="M90.09,150.72c6.21-5.3.45-35.63.45-35.63h35.14s-5.76,30.33.44,35.63,53.15,4.81,48.72,55.83H41.37C36.94,155.53,83.89,156,90.09,150.72Z"/><path class="cls-7" d="M91.89,147.69c3.06-9.34-1.35-32.6-1.35-32.6h35.14A151.33,151.33,0,0,0,123.25,138C114.4,144.92,103.29,147.67,91.89,147.69Z"/><path class="cls-8" d="M80.63,152.16s5,16.71,27.48,16.84c22.5-.13,27.47-16.84,27.47-16.84,50.93,12,40,54.39,40,54.39l-67.22.48h-.53l-67.22-.48S29.71,164.19,80.63,152.16Z"/><path class="cls-9" d="M90.21,207,73.13,153.11s-34.52,4.74-37.49,53.49Z"/><path class="cls-9" d="M126.61,207l17.08-53.85S176,157.85,179,206.6Z"/><path class="cls-7" d="M148.59,100.88c-1.8,6.57-6.86,12.4-10.83,11.31s-5.37-8.67-3.57-15.24,6.1-9.64,10.07-8.55S150.38,94.31,148.59,100.88Z"/><path class="cls-10" d="M147.82,98.09c-.23-.83-.48-1.64-.77-2.4a11.84,11.84,0,0,0-.51-1.07A1.41,1.41,0,0,0,146,94c-.13,0-.14,0-.38.16l-.13.11a2.76,2.76,0,0,0-.19.21,1.19,1.19,0,0,1-.09.15l-.13.21a10.17,10.17,0,0,0-.81,2.12c-.23.76-.41,1.55-.57,2.35s-.35,1.61-.49,2.42l-.45,2.45-.43,2.46L142,106a4.57,4.57,0,0,1,.39.35l.33.37a4.09,4.09,0,0,1,.55.88,2,2,0,0,1,.15,1.17,1.7,1.7,0,0,1-.6,1,3.8,3.8,0,0,1-1.72.78,10.49,10.49,0,0,1-1.75.23,16.12,16.12,0,0,0,1.59-.67,5,5,0,0,0,.71-.43,2,2,0,0,0,.56-.5.8.8,0,0,0,0-1,2.77,2.77,0,0,0-.46-.52l-.29-.24a2.86,2.86,0,0,0-.3-.19l-.31-.17v-.47c0-.87,0-1.72.07-2.57s.12-1.71.24-2.55.26-1.7.43-2.55.42-1.69.7-2.53a10.48,10.48,0,0,1,1.22-2.5,4.83,4.83,0,0,1,.55-.63,3.32,3.32,0,0,1,.27-.22c.18-.14.26-.16.39-.25a2.53,2.53,0,0,1,.95-.27,1.67,1.67,0,0,1,1.05.31,2.74,2.74,0,0,1,.9,1.37,5.87,5.87,0,0,1,.26,1.34A10.27,10.27,0,0,1,147.82,98.09Z"/><path class="cls-11" d="M140.34,108.92a10.58,10.58,0,1,1-10.58,10.58"/><path class="cls-7" d="M67.63,100.88c1.8,6.57,6.85,12.4,10.83,11.31S83.82,103.52,82,97,75.93,87.31,72,88.4,65.83,94.31,67.63,100.88Z"/><path class="cls-10" d="M68.39,98.09a10.75,10.75,0,0,1-.06-2.6,6.5,6.5,0,0,1,.27-1.34,2.72,2.72,0,0,1,.89-1.37,1.7,1.7,0,0,1,1.06-.31,2.54,2.54,0,0,1,.94.27,2.75,2.75,0,0,1,.39.25,1.63,1.63,0,0,1,.27.22,4.3,4.3,0,0,1,.56.63,10.07,10.07,0,0,1,1.21,2.5c.29.84.51,1.69.71,2.53s.3,1.7.43,2.55.17,1.7.24,2.55.06,1.7.07,2.57V107l-.31.17a2,2,0,0,0-.29.19l-.29.24a2.46,2.46,0,0,0-.46.52.8.8,0,0,0,0,1,2.27,2.27,0,0,0,.56.5,5.58,5.58,0,0,0,.71.43,16.3,16.3,0,0,0,1.6.67,10.75,10.75,0,0,1-1.76-.23,3.8,3.8,0,0,1-1.72-.78,1.81,1.81,0,0,1-.6-1A2.08,2.08,0,0,1,73,107.6a4.13,4.13,0,0,1,.56-.88,3.8,3.8,0,0,1,.33-.37,4.38,4.38,0,0,1,.38-.35l-.31.64-.43-2.46-.44-2.45c-.15-.81-.31-1.62-.49-2.42S72.22,97.72,72,97a10.16,10.16,0,0,0-.8-2.12l-.13-.21a1.3,1.3,0,0,1-.1-.15s-.13-.14-.19-.21-.09-.08-.12-.11c-.24-.16-.26-.19-.38-.16a1.41,1.41,0,0,0-.59.62,8.14,8.14,0,0,0-.51,1.07C68.88,96.45,68.63,97.26,68.39,98.09Z"/><path class="cls-11" d="M75.73,108.92A10.58,10.58,0,1,0,86.31,119.5"/><path class="cls-6" d="M141.07,89.1c0,24.06-14.87,48.62-33.21,48.62S74.64,113.16,74.64,89.1s14.87-38.51,33.22-38.51S141.07,65,141.07,89.1Z"/><path class="cls-9" d="M74.89,100.25s-2.39-37,31.66-38.5S140,101.49,140,101.49s16-57.93-29.33-59.42C63.49,40.52,74.89,100.25,74.89,100.25Z"/><path class="cls-12" d="M81,75.43a49.91,49.91,0,0,1-5-8.56c-4.44,15.83-1.1,33.38-1.1,33.38S74,86.51,81,75.43Z"/><path class="cls-12" d="M138.67,58.76a84.69,84.69,0,0,1-4.65,18C140.2,88,140,101.49,140,101.49S146.9,76.34,138.67,58.76Z"/><path class="cls-10" d="M106.1,92.44a13,13,0,0,1,.83,2.23,18.33,18.33,0,0,1,.49,2.34,21.19,21.19,0,0,1,.19,2.39,22,22,0,0,1-.16,2.43,17.07,17.07,0,0,1-.54,2.41,12.43,12.43,0,0,1-1,2.29,10.59,10.59,0,0,1-.66,1.07c-.24.35-.52.67-.79,1a10.68,10.68,0,0,1-.89.89c-.31.28-.66.51-1,.77l-.11-1.32c1,.66,2.05,1.35,3.06,2s2,1.43,3,2.22c-1.18-.41-2.31-.88-3.45-1.36s-2.25-1-3.35-1.52l-.91-.45.8-.86c.25-.27.51-.51.73-.79a9.1,9.1,0,0,0,.68-.83c.2-.29.4-.58.58-.89s.36-.6.52-.92.31-.64.43-1l.38-1a18.13,18.13,0,0,0,.55-2.11,19.42,19.42,0,0,0,.35-2.18c.11-.74.16-1.49.2-2.24s.07-1.52.08-2.29S106.13,93.23,106.1,92.44Z"/><path class="cls-13" d="M118.12,119.76s-12.14,9.41-21.68-1.05"/><path class="cls-5" d="M101.84,88.79l-.92-.56c-.59-.33-1.39-.81-2.34-1.3a19.82,19.82,0,0,0-3.17-1.31,10.53,10.53,0,0,0-1.72-.36,7.7,7.7,0,0,0-1.73,0,9.27,9.27,0,0,0-1.71.29,13.13,13.13,0,0,0-1.69.61c-.55.23-1.09.52-1.61.79s-1,.57-1.46.87-.89.56-1.27.81-.74.45-1,.64c-.57.37-.94.57-.94.57s.1-.39.34-1a9.13,9.13,0,0,1,.5-1.15,10.31,10.31,0,0,1,.82-1.41,12.11,12.11,0,0,1,1.21-1.54,11.88,11.88,0,0,1,1.7-1.48A10.16,10.16,0,0,1,89.05,82a9.59,9.59,0,0,1,2.63-.59,9,9,0,0,1,2.7.21,9.39,9.39,0,0,1,2.38.9,10.88,10.88,0,0,1,4.74,5.25A6.69,6.69,0,0,1,101.84,88.79Z"/><path class="cls-5" d="M131.7,90.28l-.85-.68c-.54-.41-1.29-1-2.17-1.6a21,21,0,0,0-3-1.78,10.91,10.91,0,0,0-3.43-1,9.72,9.72,0,0,0-1.79-.06l-.89.09-.9.15c-.59.13-1.18.29-1.75.45s-1.11.35-1.61.56-1,.36-1.41.54-.81.3-1.12.44c-.63.26-1,.38-1,.38s.17-.37.53-1a9,9,0,0,1,.72-1,10,10,0,0,1,1.1-1.23,13.31,13.31,0,0,1,1.51-1.28,12.21,12.21,0,0,1,2-1.1,10.16,10.16,0,0,1,2.42-.71,10,10,0,0,1,2.68-.05,9.27,9.27,0,0,1,2.58.69,9.56,9.56,0,0,1,2.19,1.26,11.11,11.11,0,0,1,2.84,3.17,10.34,10.34,0,0,1,1.16,2.68A6.18,6.18,0,0,1,131.7,90.28Z"/><path class="cls-5" d="M117,102.61a8.28,8.28,0,0,1-.2-.92,11.93,11.93,0,0,1-.13-2.5,9.19,9.19,0,0,1,.27-1.7,6.06,6.06,0,0,1,.78-1.84,4.65,4.65,0,0,1,1.61-1.6,6.33,6.33,0,0,1,1.11-.46l.58-.1.3-.06h.35l.5,0h.26l.33.08.64.17a5.68,5.68,0,0,1,.55.28,4.8,4.8,0,0,1,1.64,1.55,7.28,7.28,0,0,1,.5.9c.12.3.26.59.35.89a10.39,10.39,0,0,1,.39,1.66,12,12,0,0,1,.11,2.49c0,.6-.1.94-.1.94s-.08-.33-.23-.9-.38-1.38-.71-2.29c-.18-.46-.38-.94-.62-1.43a9.52,9.52,0,0,0-.87-1.39,3.88,3.88,0,0,0-1.23-1,2.7,2.7,0,0,0-.34-.17,1.67,1.67,0,0,1-.32-.08l-.16,0h-.9l-.2,0-.41.06a5.94,5.94,0,0,0-.74.28,3.72,3.72,0,0,0-1.19,1,8.44,8.44,0,0,0-1.3,2.86,22.68,22.68,0,0,0-.49,2.34C117,102.27,117,102.61,117,102.61Z"/><path class="cls-5" d="M87.43,102.61a8.28,8.28,0,0,1-.2-.92,10.7,10.7,0,0,1-.13-2.5,8.42,8.42,0,0,1,.27-1.7,6,6,0,0,1,.77-1.84,4.68,4.68,0,0,1,1.62-1.6,6.33,6.33,0,0,1,1.11-.46l.58-.1.29-.06h.36l.5,0h.26l.32.08.64.17a4,4,0,0,1,.55.28A4.75,4.75,0,0,1,96,95.54a8.88,8.88,0,0,1,.5.9,8.1,8.1,0,0,1,.34.89A9.41,9.41,0,0,1,97.25,99a12.1,12.1,0,0,1,.12,2.49c0,.6-.1.94-.1.94s-.08-.33-.23-.9a23.9,23.9,0,0,0-.72-2.29c-.17-.46-.38-.94-.61-1.43a8.8,8.8,0,0,0-.88-1.39,3.84,3.84,0,0,0-1.22-1,3.59,3.59,0,0,0-.34-.17,2,2,0,0,1-.33-.08l-.16,0h-.89l-.21,0-.4.06a5.94,5.94,0,0,0-.74.28,3.52,3.52,0,0,0-1.19,1A8.47,8.47,0,0,0,88,99.34a22.22,22.22,0,0,0-.48,2.34C87.46,102.27,87.43,102.61,87.43,102.61Z"/></g></g></g></svg>