<svg xmlns="http://www.w3.org/2000/svg" xmlns:xlink="http://www.w3.org/1999/xlink" viewBox="0 0 209.08 205.53"><defs><style>.cls-1{fill:none;}.cls-2{opacity:0.1;}.cls-3{fill:#d84848;}.cls-4{clip-path:url(#clip-path);}.cls-5{fill:#ffb899;}.cls-6{fill:#efa084;}.cls-7{fill:#c1db4d;}.cls-8{fill:#db5223;}.cls-9{fill:#f77b59;}.cls-10{fill:#161114;}</style><clipPath id="clip-path"><path class="cls-1" d="M178.58,174.81q-30.79,30.8-73.39,29.48t-74-32.77Q-.95,139.44,0,100.43T29.84,32.61A110.07,110.07,0,0,1,76.69,4.76a108.23,108.23,0,0,1,54.72-2.29A92.93,92.93,0,0,1,178.58,28q29.47,29.49,30.47,72.41T178.58,174.81Z"/></clipPath></defs><g id="Camada_2" data-name="Camada 2"><g id="OBJECTS"><g class="cls-2"><path class="cls-3" d="M178.58,174.81q-30.79,30.8-73.39,29.48t-74-32.77Q-.95,139.44,0,100.43T29.84,32.61A110.07,110.07,0,0,1,76.69,4.76a108.23,108.23,0,0,1,54.72-2.29A92.93,92.93,0,0,1,178.58,28q29.47,29.49,30.47,72.41T178.58,174.81Z"/></g><g class="cls-4"><path class="cls-5" d="M80.8,149.06c6.74-5.3.49-35.63.49-35.63h38.19s-6.26,30.33.48,35.63,57.76,4.81,53,55.84H27.85C23,153.87,74.06,154.35,80.8,149.06Z"/><path class="cls-6" d="M82.75,146c3.33-9.34-1.46-32.6-1.46-32.6h38.19s-2.58,12.51-2.64,22.86C107.22,143.26,95.14,146,82.75,146Z"/><path class="cls-7" d="M70.52,150.5s5.4,16.71,29.86,16.84c24.46-.13,29.86-16.84,29.86-16.84,55.34,12,43.48,54.4,43.48,54.4l-73,.47h-.58L27,204.9S15.18,162.53,70.52,150.5Z"/><path class="cls-3" d="M136.18,149.39l-9.71,56.14,36.45-.43V163.88S150.11,153.85,136.18,149.39Z"/><path class="cls-3" d="M64.88,149.39l9.68,56.14-36.42-.43V163.88S51,153.85,64.88,149.39Z"/><path class="cls-8" d="M91.21,38.73S65.58,37.51,60,58.78a45.06,45.06,0,0,0,2.23,28.6l14.11-2.23Z"/><path class="cls-6" d="M140.86,99.22c-1.8,6.57-6.85,12.4-10.83,11.31s-5.36-8.67-3.57-15.24,6.1-9.64,10.08-8.55S142.65,92.65,140.86,99.22Z"/><path class="cls-6" d="M59.9,99.22c1.8,6.57,6.85,12.4,10.83,11.31s5.36-8.67,3.57-15.24-6.1-9.64-10.07-8.55S58.11,92.65,59.9,99.22Z"/><path class="cls-5" d="M133.34,87.44c0,24.06-14.87,48.62-33.21,48.62S66.91,111.5,66.91,87.44,79.18,51,97.52,51,133.34,63.38,133.34,87.44Z"/><path class="cls-8" d="M129.43,103.33l3.13.24s1-17.33,5.3-16.37c0,0,9.63-24.07-.72-35.38C125.63,39.24,118.36,55,118.36,55s3.61,17.33,13,21.42Z"/><path class="cls-8" d="M75.84,51.73S66,64.35,67.44,77.35l2.3,22.85-1.92.48s-4.47-26.46-4.47-36.33S75.84,51.73,75.84,51.73Z"/><path class="cls-8" d="M87.12,40.58S79,68.06,105,73.64c0,0-9.66-2.23-9.66-12.26,0,0,7.43,15.23,31.2,15.6l.74-8.54,13.37,7s12.25-31.94-21.91-42.7C87.33,22.9,87.12,40.58,87.12,40.58Z"/><path class="cls-9" d="M140.1,96.43a22.53,22.53,0,0,0-.74-2.41,8.22,8.22,0,0,0-.49-1.08,1.49,1.49,0,0,0-.61-.65c-.14-.05-.2,0-.44.15,0,0-.15.11-.14.12s-.17.16-.2.21l-.23.37a9.94,9.94,0,0,0-.83,2.13c-.23.77-.42,1.56-.58,2.36s-.34,1.61-.48,2.43l-.44,2.45c-.14.82-.3,1.65-.42,2.47l-.28-.59a4.76,4.76,0,0,1,.71.71,3.79,3.79,0,0,1,.55.87,2,2,0,0,1,.15,1.14,1.78,1.78,0,0,1-.58,1,3.93,3.93,0,0,1-1.7.79,10.52,10.52,0,0,1-1.75.24,16.21,16.21,0,0,0,1.6-.65,5.65,5.65,0,0,0,.72-.42,2.35,2.35,0,0,0,.57-.5.85.85,0,0,0,0-1.09,2.46,2.46,0,0,0-.46-.53,3.93,3.93,0,0,0-.59-.44l-.29-.17v-.42c0-.86,0-1.71.09-2.56s.13-1.7.25-2.55.26-1.69.43-2.54.42-1.68.7-2.52a9.92,9.92,0,0,1,1.2-2.48,3.64,3.64,0,0,1,.54-.63,2,2,0,0,1,.26-.21,2.27,2.27,0,0,1,.38-.24,2.12,2.12,0,0,1,.91-.27,1.57,1.57,0,0,1,1,.29,2.61,2.61,0,0,1,.88,1.34,5.85,5.85,0,0,1,.28,1.33A10.68,10.68,0,0,1,140.1,96.43Z"/><path class="cls-9" d="M60.68,96.43a10.68,10.68,0,0,1,0-2.59,6.44,6.44,0,0,1,.28-1.33,2.61,2.61,0,0,1,.88-1.34,1.57,1.57,0,0,1,1-.29,2.26,2.26,0,0,1,.91.26,3.45,3.45,0,0,1,.38.25,2.93,2.93,0,0,1,.27.21,4,4,0,0,1,.53.63,10,10,0,0,1,1.21,2.48q.41,1.26.69,2.52c.17.85.31,1.69.43,2.54s.19,1.7.26,2.55.07,1.7.08,2.56v.42l-.29.17a3.93,3.93,0,0,0-.59.44,2.77,2.77,0,0,0-.46.53.85.85,0,0,0,0,1.09,2.55,2.55,0,0,0,.57.5,5.65,5.65,0,0,0,.72.42,16.21,16.21,0,0,0,1.6.65,10.52,10.52,0,0,1-1.75-.24,3.93,3.93,0,0,1-1.7-.79,1.78,1.78,0,0,1-.58-1A2,2,0,0,1,65.3,106a3.79,3.79,0,0,1,.55-.87,5.29,5.29,0,0,1,.71-.71l-.28.59c-.12-.82-.28-1.65-.42-2.47l-.44-2.45q-.21-1.23-.48-2.43c-.16-.8-.35-1.59-.58-2.36a10.49,10.49,0,0,0-.82-2.13l-.24-.37s-.14-.14-.2-.21-.09-.08-.13-.12c-.25-.17-.31-.2-.45-.15a1.49,1.49,0,0,0-.61.65A9.78,9.78,0,0,0,61.42,94,25.08,25.08,0,0,0,60.68,96.43Z"/><path class="cls-9" d="M98.38,87.44c-.14,1.92-.41,3.82-.71,5.7S97,96.9,96.61,98.76s-.82,3.72-1.31,5.56c-.22.93-.47,1.85-.73,2.76s-.52,1.84-.8,2.75l-.58-.89c1,.25,2.07.54,3.11.83s2.06.62,3.08,1c-1.09,0-2.17,0-3.24-.11s-2.14-.16-3.2-.29l-.72-.08.14-.8c.16-.94.33-1.88.53-2.81s.37-1.87.59-2.8c.41-1.86.88-3.7,1.35-5.54s1-3.68,1.6-5.49S97.64,89.22,98.38,87.44Z"/><path class="cls-9" d="M110.89,116.28a16.22,16.22,0,0,1-3.52,1.9,19.3,19.3,0,0,1-1.83.65,17.85,17.85,0,0,1-2.1.56c-.74.17-1.52.28-2.31.38s-1.61.14-2.42.14a21.71,21.71,0,0,1-2.43-.17A13.41,13.41,0,0,1,94,119.3c-.37-.1-.74-.18-1.09-.29s-.68-.27-1-.4a9.7,9.7,0,0,1-1.77-.85q-.8-.47-1.41-.87c-.39-.31-.71-.6-1-.83-.53-.46-.81-.74-.81-.74l1,.4c.32.13.7.29,1.13.49s1,.29,1.5.48a15.61,15.61,0,0,0,1.77.48c.32.07.64.17,1,.22s.68.11,1,.16.69.14,1.06.16.73.05,1.09.09a20.78,20.78,0,0,0,2.24.08c.75,0,1.51,0,2.25,0s1.48-.08,2.19-.2,1.4-.15,2-.27,1.27-.2,1.84-.3c1.15-.21,2.11-.4,2.78-.55S110.89,116.28,110.89,116.28Z"/><path class="cls-8" d="M96.94,85.52,95.87,85c-.68-.34-1.61-.83-2.72-1.37s-2.36-1.15-3.7-1.68c-.67-.27-1.36-.51-2.06-.72a15.61,15.61,0,0,0-2.08-.48,11.72,11.72,0,0,0-2-.13c-.34,0-.65.06-1,.08s-.64.12-1,.18a11,11,0,0,0-1.8.64,14.54,14.54,0,0,0-1.62.85c-.47.34-1,.6-1.36.92s-.78.55-1.06.79c-.57.47-1,.73-1,.73s.09-.43.33-1.17a8.53,8.53,0,0,1,.55-1.29,11.45,11.45,0,0,1,1-1.6A11.25,11.25,0,0,1,78,79.07a10.43,10.43,0,0,1,2.22-1.42A9.87,9.87,0,0,1,83,76.88a11.12,11.12,0,0,1,2.94,0,13,13,0,0,1,2.75.77A14.25,14.25,0,0,1,91,78.9a16.24,16.24,0,0,1,3.49,2.95,14.73,14.73,0,0,1,1.89,2.58A7.63,7.63,0,0,1,96.94,85.52Z"/><path class="cls-8" d="M126.79,85.52l-.25-.2c-.15-.13-.4-.29-.68-.51s-.67-.45-1-.75-.86-.56-1.38-.83-1-.55-1.6-.84c-.29-.13-.59-.22-.89-.34l-.45-.19-.47-.12c-.32-.07-.63-.19-1-.25s-.66-.09-1-.15a4.76,4.76,0,0,0-1-.07,8.51,8.51,0,0,0-1,0l-1,.1-.52,0-.51.12a14,14,0,0,0-2,.49c-.65.23-1.33.36-1.94.61s-1.21.48-1.77.69-1.08.42-1.54.61-.87.36-1.21.5c-.69.26-1.13.38-1.13.38s.21-.37.65-1c.22-.3.49-.68.82-1.08a8.26,8.26,0,0,1,1.19-1.3c.48-.44,1-.9,1.61-1.37a17.94,17.94,0,0,1,2-1.24,11.55,11.55,0,0,1,2.45-.95l.65-.2.7-.1,1.4-.16a13.76,13.76,0,0,1,1.43,0,6.08,6.08,0,0,1,1.4.21c.46.11.91.24,1.34.37a10,10,0,0,1,1.24.56l.58.29.53.36c.33.25.69.46,1,.73a11.61,11.61,0,0,1,1.5,1.6,10.26,10.26,0,0,1,1,1.52,8.07,8.07,0,0,1,.56,1.26,6.12,6.12,0,0,1,.26.85A2.28,2.28,0,0,1,126.79,85.52Z"/><path class="cls-10" d="M113,92.33c0,2.62.73,4.74,1.62,4.74s1.62-2.12,1.62-4.74-.73-4.73-1.62-4.73S113,89.72,113,92.33Z"/><path class="cls-10" d="M84.75,91.69c0,2.62.72,4.74,1.61,4.74S88,94.31,88,91.69,87.26,87,86.36,87,84.75,89.08,84.75,91.69Z"/></g></g></g></svg>