<svg xmlns="http://www.w3.org/2000/svg" xmlns:xlink="http://www.w3.org/1999/xlink" viewBox="0 0 200.96 205.62"><defs><style>.cls-1{fill:none;}.cls-2{opacity:0.1;}.cls-3{fill:#d84848;}.cls-4{clip-path:url(#clip-path);}.cls-5{fill:#f89b6a;}.cls-6{fill:#ef8050;}.cls-7{fill:#db5223;}.cls-8{fill:#161114;}.cls-9{fill:#723021;}</style><clipPath id="clip-path"><path class="cls-1" d="M171.91,30q30.28,30.29,29,72.18T168.68,175q-31.56,31.56-69.91,30.61t-66.7-29.32A108.25,108.25,0,0,1,4.69,130.2,106.36,106.36,0,0,1,2.43,76.39,91.32,91.32,0,0,1,27.57,30q29-29,71.2-30T171.91,30Z"/></clipPath></defs><g id="Camada_2" data-name="Camada 2"><g id="OBJECTS"><g class="cls-2"><path class="cls-3" d="M171.91,30q30.28,30.29,29,72.18T168.68,175q-31.56,31.56-69.91,30.61t-66.7-29.32A108.25,108.25,0,0,1,4.69,130.2,106.36,106.36,0,0,1,2.43,76.39,91.32,91.32,0,0,1,27.57,30q29-29,71.2-30T171.91,30Z"/></g><g class="cls-4"><path class="cls-5" d="M81.35,148.34c6.74-5.3.48-35.62.48-35.62H120s-6.26,30.32.48,35.62,57.76,4.81,52.95,55.84H28.4C23.58,153.15,74.61,153.63,81.35,148.34Z"/><path class="cls-6" d="M83.29,145.31c3.34-9.34-1.46-32.59-1.46-32.59H120s-2.58,12.5-2.64,22.85C107.76,142.54,95.68,145.3,83.29,145.31Z"/><path class="cls-3" d="M125.41,147.76l-2.23-11.88L78.25,137l-1.79,11c-59.72,12.55-48.88,56.2-48.88,56.2l73.06.47h.57l73.06-.47S183,160.76,125.41,147.76Z"/><path class="cls-6" d="M141.4,98.5c-1.8,6.58-6.85,12.4-10.83,11.32s-5.36-8.68-3.56-15.25,6.09-9.64,10.07-8.55S143.2,91.93,141.4,98.5Z"/><path class="cls-6" d="M60.45,98.5c1.79,6.58,6.85,12.4,10.82,11.32s5.37-8.68,3.57-15.25S68.74,84.93,64.77,86,58.65,91.93,60.45,98.5Z"/><path class="cls-5" d="M133.89,86.72c0,24.06-14.87,48.62-33.22,48.62S67.46,110.78,67.46,86.72s14.73-41.46,33.07-41.46S133.89,62.66,133.89,86.72Z"/><path class="cls-7" d="M140.65,95.71a23.4,23.4,0,0,0-.65-2.43,7.4,7.4,0,0,0-.47-1.11,1.78,1.78,0,0,0-.64-.74c-.19-.09-.35-.05-.63.13a1.43,1.43,0,0,0-.16.13,1.39,1.39,0,0,0-.21.22,4.37,4.37,0,0,0-.28.4,10.57,10.57,0,0,0-.87,2.17c-.23.78-.42,1.58-.59,2.39s-.34,1.62-.48,2.44c-.29,1.63-.56,3.29-.79,4.94l-.21-.44a4.94,4.94,0,0,1,.7.67,3.68,3.68,0,0,1,.53.83,1.81,1.81,0,0,1,.16,1.06,1.62,1.62,0,0,1-.54.91,4,4,0,0,1-1.65.81,11.36,11.36,0,0,1-1.73.29,14.19,14.19,0,0,0,1.62-.6,4,4,0,0,0,1.34-.9,1,1,0,0,0,.09-1.21,2.9,2.9,0,0,0-.48-.58,3.75,3.75,0,0,0-.6-.47l-.22-.14v-.3a43.28,43.28,0,0,1,.4-5.09,27.82,27.82,0,0,1,1.12-5,10.4,10.4,0,0,1,1.15-2.44,4.25,4.25,0,0,1,.5-.59c.11-.1.17-.14.26-.21a2.29,2.29,0,0,1,.35-.23,2.08,2.08,0,0,1,.83-.26,1.48,1.48,0,0,1,.92.26,2.53,2.53,0,0,1,.84,1.26,6.05,6.05,0,0,1,.31,1.29A12.3,12.3,0,0,1,140.65,95.71Z"/><path class="cls-7" d="M61.22,95.71a11.65,11.65,0,0,1,.07-2.57,6.69,6.69,0,0,1,.3-1.29,2.62,2.62,0,0,1,.85-1.26,1.45,1.45,0,0,1,.91-.26,2.08,2.08,0,0,1,.83.26,1.89,1.89,0,0,1,.35.23,2.18,2.18,0,0,1,.26.21,3.65,3.65,0,0,1,.5.59,10.06,10.06,0,0,1,1.16,2.44,28.69,28.69,0,0,1,1.12,5,45.53,45.53,0,0,1,.4,5.09v.3l-.22.14a4.33,4.33,0,0,0-.61.47,2.85,2.85,0,0,0-.47.58,1,1,0,0,0,.08,1.21,4,4,0,0,0,1.34.9,14.93,14.93,0,0,0,1.62.6,11.57,11.57,0,0,1-1.73-.29,4.1,4.1,0,0,1-1.65-.81,1.67,1.67,0,0,1-.53-.91,1.89,1.89,0,0,1,.15-1.06,3.71,3.71,0,0,1,.54-.83,4.06,4.06,0,0,1,.7-.67l-.22.44c-.23-1.65-.49-3.31-.79-4.94-.13-.82-.29-1.64-.47-2.44s-.36-1.61-.6-2.39a9.55,9.55,0,0,0-.87-2.17c-.1-.16-.2-.3-.27-.4a2.08,2.08,0,0,0-.21-.22,1,1,0,0,0-.17-.13c-.27-.18-.43-.22-.63-.13a1.78,1.78,0,0,0-.64.74,8.61,8.61,0,0,0-.47,1.11A23.38,23.38,0,0,0,61.22,95.71Z"/><path class="cls-7" d="M98.93,84.49a29.1,29.1,0,0,1-.21,4.94,42.09,42.09,0,0,1-.86,4.85A43.68,43.68,0,0,1,96.45,99a23.89,23.89,0,0,1-.91,2.3c-.31.77-.69,1.5-1.06,2.24l-.27-.9c1,.75,2,1.54,3,2.33s2,1.61,2.93,2.48c-1.17-.54-2.3-1.13-3.42-1.73s-2.24-1.22-3.33-1.86l-.47-.29.21-.61.78-2.28.75-2.29c.26-.75.46-1.53.72-2.29s.47-1.53.69-2.31.47-1.54.69-2.31l.7-2.33.7-2.33C98.41,86.06,98.67,85.28,98.93,84.49Z"/><path class="cls-7" d="M89.3,114.79s.35.12,1,.36c.3.13.67.28,1.07.47s.9.29,1.4.48a14.63,14.63,0,0,0,1.64.48,18.76,18.76,0,0,0,1.85.4,16.1,16.1,0,0,0,2,.22,15.83,15.83,0,0,0,2.07,0,18,18,0,0,0,2.07-.15c.68-.07,1.35-.21,2-.31s1.28-.27,1.86-.45,1.15-.33,1.66-.5c1-.34,1.88-.67,2.48-.91s.94-.4.94-.4a6.78,6.78,0,0,1-.74.72,11.08,11.08,0,0,1-.93.75,12.6,12.6,0,0,1-1.29.84l-.77.44c-.27.14-.56.27-.86.41a17.09,17.09,0,0,1-1.92.74,19.5,19.5,0,0,1-2.16.52,14.32,14.32,0,0,1-2.28.22c-.39,0-.78,0-1.16,0L98,119.06a13.06,13.06,0,0,1-2.19-.43,11.21,11.21,0,0,1-1.95-.7,8.62,8.62,0,0,1-1.66-.85,9.63,9.63,0,0,1-1.29-.84c-.35-.28-.65-.55-.89-.76C89.57,115.05,89.3,114.79,89.3,114.79Z"/><path class="cls-8" d="M97.48,82.57l-.24-.19-.69-.52c-.27-.23-.66-.45-1-.74s-.87-.57-1.38-.84a17.27,17.27,0,0,0-1.61-.83c-.28-.13-.59-.23-.88-.35l-.45-.18-.47-.13c-.32-.07-.63-.19-1-.25s-.66-.09-1-.15a5.65,5.65,0,0,0-1-.07,8.49,8.49,0,0,0-1,0l-1,.09-.52,0-.51.12a15.4,15.4,0,0,0-2,.49c-.65.23-1.33.36-1.94.62s-1.21.48-1.77.68a14.48,14.48,0,0,0-1.54.62c-.45.2-.87.36-1.21.49-.7.26-1.13.39-1.13.39a11,11,0,0,1,.65-1c.22-.3.48-.68.82-1.08a8.26,8.26,0,0,1,1.19-1.3c.48-.43,1-.89,1.61-1.37a16.59,16.59,0,0,1,2-1.23,10.87,10.87,0,0,1,2.45-1l.65-.2.7-.1,1.4-.16a11.24,11.24,0,0,1,1.42.06,6.07,6.07,0,0,1,1.41.2c.45.11.9.24,1.34.37a11.5,11.5,0,0,1,1.23.56l.59.29.52.37c.34.25.69.46,1,.72a11.72,11.72,0,0,1,1.51,1.6,11.14,11.14,0,0,1,1,1.52,12.16,12.16,0,0,1,.56,1.26,5.83,5.83,0,0,1,.25.85A2.28,2.28,0,0,1,97.48,82.57Z"/><path class="cls-8" d="M127.33,82.57l-.25-.19c-.15-.13-.4-.3-.68-.52s-.67-.45-1.05-.74-.86-.57-1.37-.84-1-.55-1.61-.83c-.29-.13-.59-.23-.89-.35l-.45-.18-.47-.13c-.32-.07-.62-.19-1-.25s-.65-.09-1-.15a5.54,5.54,0,0,0-1-.07,8.51,8.51,0,0,0-1,0l-1,.09-.51,0-.52.12a16.2,16.2,0,0,0-2,.49c-.65.23-1.33.36-1.94.62s-1.2.48-1.77.68a14.26,14.26,0,0,0-1.53.62c-.45.2-.88.36-1.22.49-.69.26-1.13.39-1.13.39s.22-.38.65-1c.22-.3.49-.68.82-1.08a8.26,8.26,0,0,1,1.19-1.3c.49-.43,1-.89,1.61-1.37a16.74,16.74,0,0,1,2.06-1.23,11,11,0,0,1,2.44-1l.66-.2.69-.1,1.4-.16a11.4,11.4,0,0,1,1.43.06,6,6,0,0,1,1.4.2c.46.11.91.24,1.35.37a12.48,12.48,0,0,1,1.23.56l.58.29.53.37c.34.25.69.46,1,.72a11,11,0,0,1,1.5,1.6,10.26,10.26,0,0,1,1,1.52,9,9,0,0,1,.56,1.26,6.12,6.12,0,0,1,.26.85A2.28,2.28,0,0,1,127.33,82.57Z"/><path class="cls-8" d="M92.14,89.08s.09.32.19.9a11.94,11.94,0,0,1,.14,2.45l-.07.8c0,.28-.09.57-.16.86a6.76,6.76,0,0,1-.69,1.83,4,4,0,0,1-.64.88,3.77,3.77,0,0,1-.87.76,5.86,5.86,0,0,1-1.08.49l-.58.12-.29,0h-.36a4.12,4.12,0,0,1-1.07-.13L86,97.92l-.53-.29A4.69,4.69,0,0,1,84,96a8.82,8.82,0,0,1-1.11-3.4,12.8,12.8,0,0,1-.09-2.45,9.18,9.18,0,0,1,.1-.92l.22.89c.15.56.37,1.35.68,2.26.16.46.35.94.57,1.42a9.08,9.08,0,0,0,.82,1.41,7.57,7.57,0,0,0,.53.6,4.14,4.14,0,0,0,.62.44l.33.18a1.47,1.47,0,0,1,.3.08c.14.1.58,0,.88.08h.14l.19,0,.39-.06a4.91,4.91,0,0,0,.7-.3,3.53,3.53,0,0,0,1.12-1.06,7.15,7.15,0,0,0,.75-1.42c.18-.5.34-1,.46-1.45.23-.93.37-1.74.46-2.31S92.14,89.08,92.14,89.08Z"/><path class="cls-8" d="M120,89.08a6.87,6.87,0,0,1,.19.9,10.67,10.67,0,0,1,.14,2.45l-.06.8c-.05.28-.1.57-.16.86a6.48,6.48,0,0,1-.7,1.83,4.32,4.32,0,0,1-.63.88,4.05,4.05,0,0,1-.88.76,5.57,5.57,0,0,1-1.08.49l-.58.12-.29,0h-.35a4.19,4.19,0,0,1-1.08-.13l-.64-.19-.53-.29A4.69,4.69,0,0,1,111.8,96a9,9,0,0,1-1.11-3.4,11.89,11.89,0,0,1-.08-2.45,9.18,9.18,0,0,1,.1-.92s.07.33.22.89.36,1.35.67,2.26c.16.46.35.94.57,1.42a10,10,0,0,0,.82,1.41,7.7,7.7,0,0,0,.54.6,3.32,3.32,0,0,0,.62.44l.32.18a1.57,1.57,0,0,1,.31.08c.14.1.57,0,.87.08h.14l.19,0,.4-.06a6.14,6.14,0,0,0,.7-.3,3.5,3.5,0,0,0,1.11-1.06,7.15,7.15,0,0,0,.75-1.42c.18-.5.34-1,.47-1.45a23.22,23.22,0,0,0,.45-2.31C120,89.41,120,89.08,120,89.08Z"/><path class="cls-9" d="M135.44,43c-29.93-23.45-43.71-7.41-47.51-1.32A10.27,10.27,0,0,0,77.5,36.54C66.43,37.83,51.89,54.35,65.38,85.36c.86,20.16,6.29,52.8,33.66,53.86,34.74,1.34,35.73-34.84,35.3-46,.8-3.81,2.07-7.22,4.06-6.78C138.4,86.48,154.53,58,135.44,43Zm-29.9,83.19c-2.41-.37-2.78-4.83-2.78-4.83l-4.83.19s.37,5.94-3.71,4.64c-6.16-2-4.46-12.07-4.46-12.07a12.28,12.28,0,0,0,9.66-2.41,17.53,17.53,0,0,0,11.88,2.78C112.78,124.36,108,126.59,105.54,126.22Zm23.58-21.91c-2,9.57-5.8,19.19-9.84,18.57-7.24-1.12-2.32-8.84-5.94-11.51-6-4.46-29.07-6.74-27.85,5,1.27,12.27-15.77,2.11-14.4-32.28l.28-5.29c0-.1.23-4.58.23-4.58,2.5-.77,3.5-4.14,3.8-7.92a6.59,6.59,0,0,0,4.33,3.46s-1.48-24.14,7.43-15.59c0,0,7.24-6.87,8.17,3s-1.86,13.37-1.86,13.37,6.87,3,9.66-12.07c0,0,3,10.77-2.79,15,0,0,9.83.45,11.19-10.08-.27,3.91-1.06,9.91-3.39,11.38,0,0,8.73-1.12,7.06-16,0,0,2,9.47.37,13.55a15.2,15.2,0,0,0,9.08-4,13.36,13.36,0,0,1-1.84,4.74s4.72.14,7.77-2.69l-.09,25C130.12,98.59,129.68,101.64,129.12,104.31Z"/></g></g></g></svg>