<svg xmlns="http://www.w3.org/2000/svg" xmlns:xlink="http://www.w3.org/1999/xlink" viewBox="0 0 198.53 204.6"><defs><style>.cls-1,.cls-10{fill:none;}.cls-2{fill:#e1f0ff;}.cls-3{clip-path:url(#clip-path);}.cls-4{fill:#2c2429;}.cls-5{fill:#ffb899;}.cls-6{fill:#efa084;}.cls-7{fill:#86c1e2;}.cls-8{fill:#f77b59;}.cls-9{fill:#161114;}.cls-10{stroke:#3897c1;stroke-miterlimit:10;stroke-width:2.39px;}</style><clipPath id="clip-path"><path class="cls-1" d="M28.7,173.5Q-1.22,143.58.05,102.2T31.89,30.26Q63.06-.91,101,0t65.89,29A107,107,0,0,1,193.9,74.51a105.13,105.13,0,0,1,2.23,53.15,90.28,90.28,0,0,1-24.83,45.83Q142.65,202.14,101,203.1T28.7,173.5Z"/></clipPath></defs><g id="Camada_2" data-name="Camada 2"><g id="OBJECTS"><path class="cls-2" d="M28.7,173.5Q-1.22,143.58.05,102.2T31.89,30.26Q63.06-.91,101,0t65.89,29A107,107,0,0,1,193.9,74.51a105.13,105.13,0,0,1,2.23,53.15,90.28,90.28,0,0,1-24.83,45.83Q142.65,202.14,101,203.1T28.7,173.5Z"/><g class="cls-3"><path class="cls-4" d="M58.77,96.63S38.72,94.4,43.73,110c0,0-11.14-1.12-2.78,8.35,0,0-12.26-1.11-10.59,13.93s16.16,7.8,16.16,7.8-10.59,5.57-7.24,16.71,18.38,16.15,28.41-.56S90,161.8,90,161.8l6.68-40.1Z"/><path class="cls-4" d="M137.72,96.63s20.05-2.23,15,13.37c0,0,11.14-1.12,2.78,8.35,0,0,12.26-1.11,10.59,13.93s-16.16,7.8-16.16,7.8,10.59,5.57,7.24,16.71-18.38,16.15-28.41-.56-22.28,5.57-22.28,5.57l-6.68-40.1Z"/><path class="cls-5" d="M78.75,146.05c6.46-5.29.46-35.62.46-35.62h36.63s-6,30.33.46,35.62,48.91,4.66,45,58H36.75C31.94,150.57,72.28,151.35,78.75,146.05Z"/><path class="cls-6" d="M80.61,143c3.2-9.33-1.4-32.59-1.4-32.59h36.63a145.27,145.27,0,0,0-2.53,22.86C104.08,140.25,92.5,143,80.61,143Z"/><path class="cls-6" d="M87.67,176.56c23.4,0,46.91-.57,70.36-.45a54.54,54.54,0,0,1,3.35,15.94c-19.06,5.93-68.15,17.43-125,1.18a58.2,58.2,0,0,1,2.71-16.67Z"/><path class="cls-7" d="M53.76,155c3.93-1.84,8.59-4.39,14.11-5.25,0,0,5.39,16.71,29.85,16.84,24.46-.13,29.86-16.84,29.86-16.84,6.09.84,11.17,3.46,15.42,5.43-2.1,7.05-5.93,24.25.82,49.09L98,204.6h-.57L53,204.26C59.79,179.2,55.85,161.9,53.76,155Z"/><path class="cls-7" d="M130.58,175.17l-3-25.44s25.56-2.69,40.32,33c0,0-12.53,10.86-34.26,12.54Z"/><path class="cls-7" d="M64.63,175.17l3-25.44s-25.56-2.69-40.32,33c0,0,12.54,10.86,34.26,12.54Z"/><path class="cls-6" d="M138.2,98.45c-1.8,6.57-6.85,12.4-10.83,11.31s-5.36-8.67-3.56-15.25,6.09-9.63,10.07-8.55S140,91.88,138.2,98.45Z"/><path class="cls-6" d="M57.25,98.45C59,105,64.1,110.85,68.07,109.76s5.37-8.67,3.57-15.25S65.54,84.88,61.57,86,55.45,91.88,57.25,98.45Z"/><path class="cls-5" d="M130.69,86.67c0,24.06-14.87,48.62-33.22,48.62S64.26,110.73,64.26,86.67,79.13,48.16,97.47,48.16,130.69,62.61,130.69,86.67Z"/><path class="cls-4" d="M98.88,37s2.79,39-30.08,46.8c0,0-1.12,13.36-3.34,14.48S61.57,86,61.57,86s-4.47,1.76-4.47,7.88a57.72,57.72,0,0,1,5.58-40.1C73.82,33.13,98.88,37,98.88,37Z"/><path class="cls-4" d="M97.24,37s-2.79,39,30.08,46.8c0,0,1.12,14.48,3.34,15.59S134.55,86,134.55,86,139,87.72,139,93.84a57.72,57.72,0,0,0-5.58-40.1C122.3,33.13,97.24,37,97.24,37Z"/><path class="cls-8" d="M95.54,96.35c0,.46,0,.9,0,1.35s-.07.9-.13,1.36-.16.89-.27,1.33l-.4,1.31L94.21,103c-.21.41-.45.81-.68,1.21l-.83,1.13c-.33.34-.64.69-1,1l-.14-1.46c.52.36,1,.75,1.53,1.13s1,.79,1.5,1.19a26.84,26.84,0,0,1,2.79,2.66,26.61,26.61,0,0,1-3.54-1.53c-.56-.3-1.14-.58-1.68-.91s-1.11-.63-1.64-1l-.89-.57.75-.89c.26-.31.54-.61.81-.91l.74-1c.23-.34.45-.69.69-1l.63-1.08.6-1.11c.16-.39.37-.76.56-1.15s.36-.78.54-1.18S95.33,96.76,95.54,96.35Z"/><path class="cls-8" d="M107,115.52a13.5,13.5,0,0,1-2.7,2.85,14.4,14.4,0,0,1-1.57,1.11l-.91.55c-.32.17-.66.32-1,.48a6.64,6.64,0,0,1-1.07.43c-.37.13-.75.27-1.13.38a13.08,13.08,0,0,1-2.43.37l-1.24,0c-.41,0-.82-.1-1.23-.15a9.6,9.6,0,0,1-2.3-.6l-.54-.18-.5-.27-.94-.53a7.63,7.63,0,0,1-1.56-1.16,7.1,7.1,0,0,1-1.18-1.12c-.31-.37-.57-.7-.78-1-.41-.55-.63-.87-.63-.87s.34.21.9.59c.28.19.62.42,1,.69a9.54,9.54,0,0,0,1.33.77,9.84,9.84,0,0,0,1.59.8l.9.34.46.18.48.12a11.24,11.24,0,0,0,2,.36l1,.1,1.06-.06h.53c.18,0,.35-.06.53-.09l1-.16c.68-.21,1.38-.31,2-.57.32-.12.64-.24,1-.34l.91-.38c.59-.24,1.12-.54,1.64-.77s1-.51,1.36-.75l1-.61C106.72,115.74,107,115.52,107,115.52Z"/><ellipse class="cls-9" cx="111.92" cy="96.02" rx="1.62" ry="4.73"/><path class="cls-9" d="M82.09,95.38c0,2.61.72,4.73,1.62,4.73s1.61-2.12,1.61-4.73-.72-4.74-1.61-4.74S82.09,92.76,82.09,95.38Z"/><circle class="cls-10" cx="79.24" cy="94.26" r="14.07" transform="translate(-36.89 135.21) rotate(-69.37)"/><circle class="cls-10" cx="116.57" cy="94.26" r="14.07" transform="translate(-23.14 148.61) rotate(-60.22)"/><path class="cls-10" d="M93.31,95.51s4.18-5,8.91.28"/><line class="cls-10" x1="62.39" y1="94.4" x2="65.18" y2="94.26"/><line class="cls-10" x1="130.73" y1="94.4" x2="133.51" y2="94.26"/></g></g></g></svg>