<svg aria-roledescription="er" role="graphics-document document" viewBox="0 0 423.8118896484375 328" style="max-width: 423.812px; " xmlns:xlink="http://www.w3.org/1999/xlink" xmlns="http://www.w3.org/2000/svg" width="100%" id="my-svg"><style>#my-svg{font-family:"trebuchet ms",verdana,arial,sans-serif;font-size:16px;fill:#333;}#my-svg .error-icon{fill:#552222;}#my-svg .error-text{fill:#552222;stroke:#552222;}#my-svg .edge-thickness-normal{stroke-width:2px;}#my-svg .edge-thickness-thick{stroke-width:3.5px;}#my-svg .edge-pattern-solid{stroke-dasharray:0;}#my-svg .edge-pattern-dashed{stroke-dasharray:3;}#my-svg .edge-pattern-dotted{stroke-dasharray:2;}#my-svg .marker{fill:#333333;stroke:#333333;}#my-svg .marker.cross{stroke:#333333;}#my-svg svg{font-family:"trebuchet ms",verdana,arial,sans-serif;font-size:16px;}#my-svg .entityBox{fill:#ECECFF;stroke:#9370DB;}#my-svg .attributeBoxOdd{fill:#ffffff;stroke:#9370DB;}#my-svg .attributeBoxEven{fill:#f2f2f2;stroke:#9370DB;}#my-svg .relationshipLabelBox{fill:hsl(80, 100%, 96.2745098039%);opacity:0.7;background-color:hsl(80, 100%, 96.2745098039%);}#my-svg .relationshipLabelBox rect{opacity:0.5;}#my-svg .relationshipLine{stroke:#333333;}#my-svg .entityTitleText{text-anchor:middle;font-size:18px;fill:#333;}#my-svg #MD_PARENT_START{fill:#f5f5f5!important;stroke:#333333!important;stroke-width:1;}#my-svg #MD_PARENT_END{fill:#f5f5f5!important;stroke:#333333!important;stroke-width:1;}#my-svg :root{--mermaid-font-family:"trebuchet ms",verdana,arial,sans-serif;}</style><g/><defs><marker orient="auto" markerHeight="240" markerWidth="190" refY="7" refX="0" id="MD_PARENT_START"><path d="M 18,7 L9,13 L1,7 L9,1 Z"/></marker></defs><defs><marker orient="auto" markerHeight="28" markerWidth="20" refY="7" refX="19" id="MD_PARENT_END"><path d="M 18,7 L9,13 L1,7 L9,1 Z"/></marker></defs><defs><marker orient="auto" markerHeight="18" markerWidth="18" refY="9" refX="0" id="ONLY_ONE_START"><path d="M9,0 L9,18 M15,0 L15,18" fill="none" stroke="gray"/></marker></defs><defs><marker orient="auto" markerHeight="18" markerWidth="18" refY="9" refX="18" id="ONLY_ONE_END"><path d="M3,0 L3,18 M9,0 L9,18" fill="none" stroke="gray"/></marker></defs><defs><marker orient="auto" markerHeight="18" markerWidth="30" refY="9" refX="0" id="ZERO_OR_ONE_START"><circle r="6" cy="9" cx="21" fill="white" stroke="gray"/><path d="M9,0 L9,18" fill="none" stroke="gray"/></marker></defs><defs><marker orient="auto" markerHeight="18" markerWidth="30" refY="9" refX="30" id="ZERO_OR_ONE_END"><circle r="6" cy="9" cx="9" fill="white" stroke="gray"/><path d="M21,0 L21,18" fill="none" stroke="gray"/></marker></defs><defs><marker orient="auto" markerHeight="36" markerWidth="45" refY="18" refX="18" id="ONE_OR_MORE_START"><path d="M0,18 Q 18,0 36,18 Q 18,36 0,18 M42,9 L42,27" fill="none" stroke="gray"/></marker></defs><defs><marker orient="auto" markerHeight="36" markerWidth="45" refY="18" refX="27" id="ONE_OR_MORE_END"><path d="M3,9 L3,27 M9,18 Q27,0 45,18 Q27,36 9,18" fill="none" stroke="gray"/></marker></defs><defs><marker orient="auto" markerHeight="36" markerWidth="57" refY="18" refX="18" id="ZERO_OR_MORE_START"><circle r="6" cy="18" cx="48" fill="white" stroke="gray"/><path d="M0,18 Q18,0 36,18 Q18,36 0,18" fill="none" stroke="gray"/></marker></defs><defs><marker orient="auto" markerHeight="36" markerWidth="57" refY="18" refX="39" id="ZERO_OR_MORE_END"><circle r="6" cy="18" cx="9" fill="white" stroke="gray"/><path d="M21,18 Q39,0 57,18 Q39,36 21,18" fill="none" stroke="gray"/></marker></defs><g transform="translate(20,97 )" id="entity-books-6df542cd-2488-5f8f-8c0d-acd20e807fe7"><rect height="134" width="124.15493774414062" y="0" x="0" class="er entityBox"/><text style="dominant-baseline: middle; text-anchor: middle; font-size: 12px;" transform="translate(62.07746887207031,12)" y="0" x="0" id="text-entity-books-6df542cd-2488-5f8f-8c0d-acd20e807fe7" class="er entityLabel">books</text><rect height="22" width="29.717254638671875" y="24" x="0" class="er attributeBoxOdd"/><text style="dominant-baseline: middle; font-size: 10.2px;" transform="translate(5,35)" y="0" x="0" id="text-entity-books-6df542cd-2488-5f8f-8c0d-acd20e807fe7-attr-1-type" class="er entityLabel">int</text><rect height="22" width="71.75" y="24" x="29.717254638671875" class="er attributeBoxOdd"/><text style="dominant-baseline: middle; font-size: 10.2px;" transform="translate(34.717254638671875,35)" y="0" x="0" id="text-entity-books-6df542cd-2488-5f8f-8c0d-acd20e807fe7-attr-1-name" class="er entityLabel">id</text><rect height="22" width="22.68768310546875" y="24" x="101.46725463867188" class="er attributeBoxOdd"/><text style="dominant-baseline: middle; font-size: 10.2px;" transform="translate(106.46725463867188,35)" y="0" x="0" id="text-entity-books-6df542cd-2488-5f8f-8c0d-acd20e807fe7-attr-1-key" class="er entityLabel">PK</text><rect height="22" width="29.717254638671875" y="46" x="0" class="er attributeBoxEven"/><text style="dominant-baseline: middle; font-size: 10.2px;" transform="translate(5,57)" y="0" x="0" id="text-entity-books-6df542cd-2488-5f8f-8c0d-acd20e807fe7-attr-2-type" class="er entityLabel">text</text><rect height="22" width="71.75" y="46" x="29.717254638671875" class="er attributeBoxEven"/><text style="dominant-baseline: middle; font-size: 10.2px;" transform="translate(34.717254638671875,57)" y="0" x="0" id="text-entity-books-6df542cd-2488-5f8f-8c0d-acd20e807fe7-attr-2-name" class="er entityLabel">title</text><rect height="22" width="22.68768310546875" y="46" x="101.46725463867188" class="er attributeBoxEven"/><text style="dominant-baseline: middle; font-size: 10.2px;" transform="translate(106.46725463867188,57)" y="0" x="0" id="text-entity-books-6df542cd-2488-5f8f-8c0d-acd20e807fe7-attr-2-key" class="er entityLabel"/><rect height="22" width="29.717254638671875" y="68" x="0" class="er attributeBoxOdd"/><text style="dominant-baseline: middle; font-size: 10.2px;" transform="translate(5,79)" y="0" x="0" id="text-entity-books-6df542cd-2488-5f8f-8c0d-acd20e807fe7-attr-3-type" class="er entityLabel">text</text><rect height="22" width="71.75" y="68" x="29.717254638671875" class="er attributeBoxOdd"/><text style="dominant-baseline: middle; font-size: 10.2px;" transform="translate(34.717254638671875,79)" y="0" x="0" id="text-entity-books-6df542cd-2488-5f8f-8c0d-acd20e807fe7-attr-3-name" class="er entityLabel">author</text><rect height="22" width="22.68768310546875" y="68" x="101.46725463867188" class="er attributeBoxOdd"/><text style="dominant-baseline: middle; font-size: 10.2px;" transform="translate(106.46725463867188,79)" y="0" x="0" id="text-entity-books-6df542cd-2488-5f8f-8c0d-acd20e807fe7-attr-3-key" class="er entityLabel"/><rect height="22" width="29.717254638671875" y="90" x="0" class="er attributeBoxEven"/><text style="dominant-baseline: middle; font-size: 10.2px;" transform="translate(5,101)" y="0" x="0" id="text-entity-books-6df542cd-2488-5f8f-8c0d-acd20e807fe7-attr-4-type" class="er entityLabel">text</text><rect height="22" width="71.75" y="90" x="29.717254638671875" class="er attributeBoxEven"/><text style="dominant-baseline: middle; font-size: 10.2px;" transform="translate(34.717254638671875,101)" y="0" x="0" id="text-entity-books-6df542cd-2488-5f8f-8c0d-acd20e807fe7-attr-4-name" class="er entityLabel">cover</text><rect height="22" width="22.68768310546875" y="90" x="101.46725463867188" class="er attributeBoxEven"/><text style="dominant-baseline: middle; font-size: 10.2px;" transform="translate(106.46725463867188,101)" y="0" x="0" id="text-entity-books-6df542cd-2488-5f8f-8c0d-acd20e807fe7-attr-4-key" class="er entityLabel"/><rect height="22" width="29.717254638671875" y="112" x="0" class="er attributeBoxOdd"/><text style="dominant-baseline: middle; font-size: 10.2px;" transform="translate(5,123)" y="0" x="0" id="text-entity-books-6df542cd-2488-5f8f-8c0d-acd20e807fe7-attr-5-type" class="er entityLabel">text</text><rect height="22" width="71.75" y="112" x="29.717254638671875" class="er attributeBoxOdd"/><text style="dominant-baseline: middle; font-size: 10.2px;" transform="translate(34.717254638671875,123)" y="0" x="0" id="text-entity-books-6df542cd-2488-5f8f-8c0d-acd20e807fe7-attr-5-name" class="er entityLabel">download_url</text><rect height="22" width="22.68768310546875" y="112" x="101.46725463867188" class="er attributeBoxOdd"/><text style="dominant-baseline: middle; font-size: 10.2px;" transform="translate(106.46725463867188,123)" y="0" x="0" id="text-entity-books-6df542cd-2488-5f8f-8c0d-acd20e807fe7-attr-5-key" class="er entityLabel"/></g><g transform="translate(244.15493774414062,20 )" id="entity-processedimages-ab7d91d9-73fc-5cc9-a2e1-a01f67e2c398"><rect height="288" width="159.65695190429688" y="0" x="0" class="er entityBox"/><text style="dominant-baseline: middle; text-anchor: middle; font-size: 12px;" transform="translate(79.82847595214844,12)" y="0" x="0" id="text-entity-processedimages-ab7d91d9-73fc-5cc9-a2e1-a01f67e2c398" class="er entityLabel">processed_images</text><rect height="22" width="46.56010437011719" y="24" x="0" class="er attributeBoxOdd"/><text style="dominant-baseline: middle; font-size: 10.2px;" transform="translate(5,35)" y="0" x="0" id="text-entity-processedimages-ab7d91d9-73fc-5cc9-a2e1-a01f67e2c398-attr-1-type" class="er entityLabel">int</text><rect height="22" width="90.40916442871094" y="24" x="46.56010437011719" class="er attributeBoxOdd"/><text style="dominant-baseline: middle; font-size: 10.2px;" transform="translate(51.56010437011719,35)" y="0" x="0" id="text-entity-processedimages-ab7d91d9-73fc-5cc9-a2e1-a01f67e2c398-attr-1-name" class="er entityLabel">id</text><rect height="22" width="22.68768310546875" y="24" x="136.96926879882812" class="er attributeBoxOdd"/><text style="dominant-baseline: middle; font-size: 10.2px;" transform="translate(141.96926879882812,35)" y="0" x="0" id="text-entity-processedimages-ab7d91d9-73fc-5cc9-a2e1-a01f67e2c398-attr-1-key" class="er entityLabel">PK</text><rect height="22" width="46.56010437011719" y="46" x="0" class="er attributeBoxEven"/><text style="dominant-baseline: middle; font-size: 10.2px;" transform="translate(5,57)" y="0" x="0" id="text-entity-processedimages-ab7d91d9-73fc-5cc9-a2e1-a01f67e2c398-attr-2-type" class="er entityLabel">decimal</text><rect height="22" width="90.40916442871094" y="46" x="46.56010437011719" class="er attributeBoxEven"/><text style="dominant-baseline: middle; font-size: 10.2px;" transform="translate(51.56010437011719,57)" y="0" x="0" id="text-entity-processedimages-ab7d91d9-73fc-5cc9-a2e1-a01f67e2c398-attr-2-name" class="er entityLabel">score</text><rect height="22" width="22.68768310546875" y="46" x="136.96926879882812" class="er attributeBoxEven"/><text style="dominant-baseline: middle; font-size: 10.2px;" transform="translate(141.96926879882812,57)" y="0" x="0" id="text-entity-processedimages-ab7d91d9-73fc-5cc9-a2e1-a01f67e2c398-attr-2-key" class="er entityLabel"/><rect height="22" width="46.56010437011719" y="68" x="0" class="er attributeBoxOdd"/><text style="dominant-baseline: middle; font-size: 10.2px;" transform="translate(5,79)" y="0" x="0" id="text-entity-processedimages-ab7d91d9-73fc-5cc9-a2e1-a01f67e2c398-attr-3-type" class="er entityLabel">text</text><rect height="22" width="90.40916442871094" y="68" x="46.56010437011719" class="er attributeBoxOdd"/><text style="dominant-baseline: middle; font-size: 10.2px;" transform="translate(51.56010437011719,79)" y="0" x="0" id="text-entity-processedimages-ab7d91d9-73fc-5cc9-a2e1-a01f67e2c398-attr-3-name" class="er entityLabel">image</text><rect height="22" width="22.68768310546875" y="68" x="136.96926879882812" class="er attributeBoxOdd"/><text style="dominant-baseline: middle; font-size: 10.2px;" transform="translate(141.96926879882812,79)" y="0" x="0" id="text-entity-processedimages-ab7d91d9-73fc-5cc9-a2e1-a01f67e2c398-attr-3-key" class="er entityLabel"/><rect height="22" width="46.56010437011719" y="90" x="0" class="er attributeBoxEven"/><text style="dominant-baseline: middle; font-size: 10.2px;" transform="translate(5,101)" y="0" x="0" id="text-entity-processedimages-ab7d91d9-73fc-5cc9-a2e1-a01f67e2c398-attr-4-type" class="er entityLabel">boolean</text><rect height="22" width="90.40916442871094" y="90" x="46.56010437011719" class="er attributeBoxEven"/><text style="dominant-baseline: middle; font-size: 10.2px;" transform="translate(51.56010437011719,101)" y="0" x="0" id="text-entity-processedimages-ab7d91d9-73fc-5cc9-a2e1-a01f67e2c398-attr-4-name" class="er entityLabel">arched_eyebrows</text><rect height="22" width="22.68768310546875" y="90" x="136.96926879882812" class="er attributeBoxEven"/><text style="dominant-baseline: middle; font-size: 10.2px;" transform="translate(141.96926879882812,101)" y="0" x="0" id="text-entity-processedimages-ab7d91d9-73fc-5cc9-a2e1-a01f67e2c398-attr-4-key" class="er entityLabel"/><rect height="22" width="46.56010437011719" y="112" x="0" class="er attributeBoxOdd"/><text style="dominant-baseline: middle; font-size: 10.2px;" transform="translate(5,123)" y="0" x="0" id="text-entity-processedimages-ab7d91d9-73fc-5cc9-a2e1-a01f67e2c398-attr-5-type" class="er entityLabel">boolean</text><rect height="22" width="90.40916442871094" y="112" x="46.56010437011719" class="er attributeBoxOdd"/><text style="dominant-baseline: middle; font-size: 10.2px;" transform="translate(51.56010437011719,123)" y="0" x="0" id="text-entity-processedimages-ab7d91d9-73fc-5cc9-a2e1-a01f67e2c398-attr-5-name" class="er entityLabel">bags_under_eyes</text><rect height="22" width="22.68768310546875" y="112" x="136.96926879882812" class="er attributeBoxOdd"/><text style="dominant-baseline: middle; font-size: 10.2px;" transform="translate(141.96926879882812,123)" y="0" x="0" id="text-entity-processedimages-ab7d91d9-73fc-5cc9-a2e1-a01f67e2c398-attr-5-key" class="er entityLabel"/><rect height="22" width="46.56010437011719" y="134" x="0" class="er attributeBoxEven"/><text style="dominant-baseline: middle; font-size: 10.2px;" transform="translate(5,145)" y="0" x="0" id="text-entity-processedimages-ab7d91d9-73fc-5cc9-a2e1-a01f67e2c398-attr-6-type" class="er entityLabel">boolean</text><rect height="22" width="90.40916442871094" y="134" x="46.56010437011719" class="er attributeBoxEven"/><text style="dominant-baseline: middle; font-size: 10.2px;" transform="translate(51.56010437011719,145)" y="0" x="0" id="text-entity-processedimages-ab7d91d9-73fc-5cc9-a2e1-a01f67e2c398-attr-6-name" class="er entityLabel">bushy_eyebrows</text><rect height="22" width="22.68768310546875" y="134" x="136.96926879882812" class="er attributeBoxEven"/><text style="dominant-baseline: middle; font-size: 10.2px;" transform="translate(141.96926879882812,145)" y="0" x="0" id="text-entity-processedimages-ab7d91d9-73fc-5cc9-a2e1-a01f67e2c398-attr-6-key" class="er entityLabel"/><rect height="22" width="46.56010437011719" y="156" x="0" class="er attributeBoxOdd"/><text style="dominant-baseline: middle; font-size: 10.2px;" transform="translate(5,167)" y="0" x="0" id="text-entity-processedimages-ab7d91d9-73fc-5cc9-a2e1-a01f67e2c398-attr-7-type" class="er entityLabel">boolean</text><rect height="22" width="90.40916442871094" y="156" x="46.56010437011719" class="er attributeBoxOdd"/><text style="dominant-baseline: middle; font-size: 10.2px;" transform="translate(51.56010437011719,167)" y="0" x="0" id="text-entity-processedimages-ab7d91d9-73fc-5cc9-a2e1-a01f67e2c398-attr-7-name" class="er entityLabel">eyeglasses</text><rect height="22" width="22.68768310546875" y="156" x="136.96926879882812" class="er attributeBoxOdd"/><text style="dominant-baseline: middle; font-size: 10.2px;" transform="translate(141.96926879882812,167)" y="0" x="0" id="text-entity-processedimages-ab7d91d9-73fc-5cc9-a2e1-a01f67e2c398-attr-7-key" class="er entityLabel"/><rect height="22" width="46.56010437011719" y="178" x="0" class="er attributeBoxEven"/><text style="dominant-baseline: middle; font-size: 10.2px;" transform="translate(5,189)" y="0" x="0" id="text-entity-processedimages-ab7d91d9-73fc-5cc9-a2e1-a01f67e2c398-attr-8-type" class="er entityLabel">boolean</text><rect height="22" width="90.40916442871094" y="178" x="46.56010437011719" class="er attributeBoxEven"/><text style="dominant-baseline: middle; font-size: 10.2px;" transform="translate(51.56010437011719,189)" y="0" x="0" id="text-entity-processedimages-ab7d91d9-73fc-5cc9-a2e1-a01f67e2c398-attr-8-name" class="er entityLabel">gray_hair</text><rect height="22" width="22.68768310546875" y="178" x="136.96926879882812" class="er attributeBoxEven"/><text style="dominant-baseline: middle; font-size: 10.2px;" transform="translate(141.96926879882812,189)" y="0" x="0" id="text-entity-processedimages-ab7d91d9-73fc-5cc9-a2e1-a01f67e2c398-attr-8-key" class="er entityLabel"/><rect height="22" width="46.56010437011719" y="200" x="0" class="er attributeBoxOdd"/><text style="dominant-baseline: middle; font-size: 10.2px;" transform="translate(5,211)" y="0" x="0" id="text-entity-processedimages-ab7d91d9-73fc-5cc9-a2e1-a01f67e2c398-attr-9-type" class="er entityLabel">boolean</text><rect height="22" width="90.40916442871094" y="200" x="46.56010437011719" class="er attributeBoxOdd"/><text style="dominant-baseline: middle; font-size: 10.2px;" transform="translate(51.56010437011719,211)" y="0" x="0" id="text-entity-processedimages-ab7d91d9-73fc-5cc9-a2e1-a01f67e2c398-attr-9-name" class="er entityLabel">high_cheekbones</text><rect height="22" width="22.68768310546875" y="200" x="136.96926879882812" class="er attributeBoxOdd"/><text style="dominant-baseline: middle; font-size: 10.2px;" transform="translate(141.96926879882812,211)" y="0" x="0" id="text-entity-processedimages-ab7d91d9-73fc-5cc9-a2e1-a01f67e2c398-attr-9-key" class="er entityLabel"/><rect height="22" width="46.56010437011719" y="222" x="0" class="er attributeBoxEven"/><text style="dominant-baseline: middle; font-size: 10.2px;" transform="translate(5,233)" y="0" x="0" id="text-entity-processedimages-ab7d91d9-73fc-5cc9-a2e1-a01f67e2c398-attr-10-type" class="er entityLabel">boolean</text><rect height="22" width="90.40916442871094" y="222" x="46.56010437011719" class="er attributeBoxEven"/><text style="dominant-baseline: middle; font-size: 10.2px;" transform="translate(51.56010437011719,233)" y="0" x="0" id="text-entity-processedimages-ab7d91d9-73fc-5cc9-a2e1-a01f67e2c398-attr-10-name" class="er entityLabel">male</text><rect height="22" width="22.68768310546875" y="222" x="136.96926879882812" class="er attributeBoxEven"/><text style="dominant-baseline: middle; font-size: 10.2px;" transform="translate(141.96926879882812,233)" y="0" x="0" id="text-entity-processedimages-ab7d91d9-73fc-5cc9-a2e1-a01f67e2c398-attr-10-key" class="er entityLabel"/><rect height="22" width="46.56010437011719" y="244" x="0" class="er attributeBoxOdd"/><text style="dominant-baseline: middle; font-size: 10.2px;" transform="translate(5,255)" y="0" x="0" id="text-entity-processedimages-ab7d91d9-73fc-5cc9-a2e1-a01f67e2c398-attr-11-type" class="er entityLabel">boolean</text><rect height="22" width="90.40916442871094" y="244" x="46.56010437011719" class="er attributeBoxOdd"/><text style="dominant-baseline: middle; font-size: 10.2px;" transform="translate(51.56010437011719,255)" y="0" x="0" id="text-entity-processedimages-ab7d91d9-73fc-5cc9-a2e1-a01f67e2c398-attr-11-name" class="er entityLabel">narrow_eyes</text><rect height="22" width="22.68768310546875" y="244" x="136.96926879882812" class="er attributeBoxOdd"/><text style="dominant-baseline: middle; font-size: 10.2px;" transform="translate(141.96926879882812,255)" y="0" x="0" id="text-entity-processedimages-ab7d91d9-73fc-5cc9-a2e1-a01f67e2c398-attr-11-key" class="er entityLabel"/><rect height="22" width="46.56010437011719" y="266" x="0" class="er attributeBoxEven"/><text style="dominant-baseline: middle; font-size: 10.2px;" transform="translate(5,277)" y="0" x="0" id="text-entity-processedimages-ab7d91d9-73fc-5cc9-a2e1-a01f67e2c398-attr-12-type" class="er entityLabel">boolean</text><rect height="22" width="90.40916442871094" y="266" x="46.56010437011719" class="er attributeBoxEven"/><text style="dominant-baseline: middle; font-size: 10.2px;" transform="translate(51.56010437011719,277)" y="0" x="0" id="text-entity-processedimages-ab7d91d9-73fc-5cc9-a2e1-a01f67e2c398-attr-12-name" class="er entityLabel">young</text><rect height="22" width="22.68768310546875" y="266" x="136.96926879882812" class="er attributeBoxEven"/><text style="dominant-baseline: middle; font-size: 10.2px;" transform="translate(141.96926879882812,277)" y="0" x="0" id="text-entity-processedimages-ab7d91d9-73fc-5cc9-a2e1-a01f67e2c398-attr-12-key" class="er entityLabel"/></g></svg>