<svg aria-roledescription="er" role="graphics-document document" viewBox="0 0 509.0425109863281 606" style="max-width: 509.043px; " xmlns:xlink="http://www.w3.org/1999/xlink" xmlns="http://www.w3.org/2000/svg" width="100%" id="my-svg"><style>#my-svg{font-family:"trebuchet ms",verdana,arial,sans-serif;font-size:16px;fill:#333;}#my-svg .error-icon{fill:#552222;}#my-svg .error-text{fill:#552222;stroke:#552222;}#my-svg .edge-thickness-normal{stroke-width:2px;}#my-svg .edge-thickness-thick{stroke-width:3.5px;}#my-svg .edge-pattern-solid{stroke-dasharray:0;}#my-svg .edge-pattern-dashed{stroke-dasharray:3;}#my-svg .edge-pattern-dotted{stroke-dasharray:2;}#my-svg .marker{fill:#333333;stroke:#333333;}#my-svg .marker.cross{stroke:#333333;}#my-svg svg{font-family:"trebuchet ms",verdana,arial,sans-serif;font-size:16px;}#my-svg .entityBox{fill:#ECECFF;stroke:#9370DB;}#my-svg .attributeBoxOdd{fill:#ffffff;stroke:#9370DB;}#my-svg .attributeBoxEven{fill:#f2f2f2;stroke:#9370DB;}#my-svg .relationshipLabelBox{fill:hsl(80, 100%, 96.2745098039%);opacity:0.7;background-color:hsl(80, 100%, 96.2745098039%);}#my-svg .relationshipLabelBox rect{opacity:0.5;}#my-svg .relationshipLine{stroke:#333333;}#my-svg .entityTitleText{text-anchor:middle;font-size:18px;fill:#333;}#my-svg #MD_PARENT_START{fill:#f5f5f5!important;stroke:#333333!important;stroke-width:1;}#my-svg #MD_PARENT_END{fill:#f5f5f5!important;stroke:#333333!important;stroke-width:1;}#my-svg :root{--mermaid-font-family:"trebuchet ms",verdana,arial,sans-serif;}</style><g/><defs><marker orient="auto" markerHeight="240" markerWidth="190" refY="7" refX="0" id="MD_PARENT_START"><path d="M 18,7 L9,13 L1,7 L9,1 Z"/></marker></defs><defs><marker orient="auto" markerHeight="28" markerWidth="20" refY="7" refX="19" id="MD_PARENT_END"><path d="M 18,7 L9,13 L1,7 L9,1 Z"/></marker></defs><defs><marker orient="auto" markerHeight="18" markerWidth="18" refY="9" refX="0" id="ONLY_ONE_START"><path d="M9,0 L9,18 M15,0 L15,18" fill="none" stroke="gray"/></marker></defs><defs><marker orient="auto" markerHeight="18" markerWidth="18" refY="9" refX="18" id="ONLY_ONE_END"><path d="M3,0 L3,18 M9,0 L9,18" fill="none" stroke="gray"/></marker></defs><defs><marker orient="auto" markerHeight="18" markerWidth="30" refY="9" refX="0" id="ZERO_OR_ONE_START"><circle r="6" cy="9" cx="21" fill="white" stroke="gray"/><path d="M9,0 L9,18" fill="none" stroke="gray"/></marker></defs><defs><marker orient="auto" markerHeight="18" markerWidth="30" refY="9" refX="30" id="ZERO_OR_ONE_END"><circle r="6" cy="9" cx="9" fill="white" stroke="gray"/><path d="M21,0 L21,18" fill="none" stroke="gray"/></marker></defs><defs><marker orient="auto" markerHeight="36" markerWidth="45" refY="18" refX="18" id="ONE_OR_MORE_START"><path d="M0,18 Q 18,0 36,18 Q 18,36 0,18 M42,9 L42,27" fill="none" stroke="gray"/></marker></defs><defs><marker orient="auto" markerHeight="36" markerWidth="45" refY="18" refX="27" id="ONE_OR_MORE_END"><path d="M3,9 L3,27 M9,18 Q27,0 45,18 Q27,36 9,18" fill="none" stroke="gray"/></marker></defs><defs><marker orient="auto" markerHeight="36" markerWidth="57" refY="18" refX="18" id="ZERO_OR_MORE_START"><circle r="6" cy="18" cx="48" fill="white" stroke="gray"/><path d="M0,18 Q18,0 36,18 Q18,36 0,18" fill="none" stroke="gray"/></marker></defs><defs><marker orient="auto" markerHeight="36" markerWidth="57" refY="18" refX="39" id="ZERO_OR_MORE_END"><circle r="6" cy="18" cx="9" fill="white" stroke="gray"/><path d="M21,18 Q39,0 57,18 Q39,36 21,18" fill="none" stroke="gray"/></marker></defs><path style="stroke: gray; fill: none;" marker-start="url(#ONLY_ONE_START)" marker-end="url(#ZERO_OR_MORE_END)" d="M365.187,374L365.187,382.333C365.187,390.667,365.187,407.333,365.187,424C365.187,440.667,365.187,457.333,365.187,465.667L365.187,474" class="er relationshipLine"/><g transform="translate(20,130 )" id="entity-books-6df542cd-2488-5f8f-8c0d-acd20e807fe7"><rect height="134" width="138.2097930908203" y="0" x="0" class="er entityBox"/><text style="dominant-baseline: middle; text-anchor: middle; font-size: 12px;" transform="translate(69.10489654541016,12)" y="0" x="0" id="text-entity-books-6df542cd-2488-5f8f-8c0d-acd20e807fe7" class="er entityLabel">books</text><rect height="22" width="43.77210998535156" y="24" x="0" class="er attributeBoxOdd"/><text style="dominant-baseline: middle; font-size: 10.2px;" transform="translate(5,35)" y="0" x="0" id="text-entity-books-6df542cd-2488-5f8f-8c0d-acd20e807fe7-attr-1-type" class="er entityLabel">integer</text><rect height="22" width="71.75" y="24" x="43.77210998535156" class="er attributeBoxOdd"/><text style="dominant-baseline: middle; font-size: 10.2px;" transform="translate(48.77210998535156,35)" y="0" x="0" id="text-entity-books-6df542cd-2488-5f8f-8c0d-acd20e807fe7-attr-1-name" class="er entityLabel">id</text><rect height="22" width="22.68768310546875" y="24" x="115.52210998535156" class="er attributeBoxOdd"/><text style="dominant-baseline: middle; font-size: 10.2px;" transform="translate(120.52210998535156,35)" y="0" x="0" id="text-entity-books-6df542cd-2488-5f8f-8c0d-acd20e807fe7-attr-1-key" class="er entityLabel">PK</text><rect height="22" width="43.77210998535156" y="46" x="0" class="er attributeBoxEven"/><text style="dominant-baseline: middle; font-size: 10.2px;" transform="translate(5,57)" y="0" x="0" id="text-entity-books-6df542cd-2488-5f8f-8c0d-acd20e807fe7-attr-2-type" class="er entityLabel">text</text><rect height="22" width="71.75" y="46" x="43.77210998535156" class="er attributeBoxEven"/><text style="dominant-baseline: middle; font-size: 10.2px;" transform="translate(48.77210998535156,57)" y="0" x="0" id="text-entity-books-6df542cd-2488-5f8f-8c0d-acd20e807fe7-attr-2-name" class="er entityLabel">title</text><rect height="22" width="22.68768310546875" y="46" x="115.52210998535156" class="er attributeBoxEven"/><text style="dominant-baseline: middle; font-size: 10.2px;" transform="translate(120.52210998535156,57)" y="0" x="0" id="text-entity-books-6df542cd-2488-5f8f-8c0d-acd20e807fe7-attr-2-key" class="er entityLabel"/><rect height="22" width="43.77210998535156" y="68" x="0" class="er attributeBoxOdd"/><text style="dominant-baseline: middle; font-size: 10.2px;" transform="translate(5,79)" y="0" x="0" id="text-entity-books-6df542cd-2488-5f8f-8c0d-acd20e807fe7-attr-3-type" class="er entityLabel">text</text><rect height="22" width="71.75" y="68" x="43.77210998535156" class="er attributeBoxOdd"/><text style="dominant-baseline: middle; font-size: 10.2px;" transform="translate(48.77210998535156,79)" y="0" x="0" id="text-entity-books-6df542cd-2488-5f8f-8c0d-acd20e807fe7-attr-3-name" class="er entityLabel">author</text><rect height="22" width="22.68768310546875" y="68" x="115.52210998535156" class="er attributeBoxOdd"/><text style="dominant-baseline: middle; font-size: 10.2px;" transform="translate(120.52210998535156,79)" y="0" x="0" id="text-entity-books-6df542cd-2488-5f8f-8c0d-acd20e807fe7-attr-3-key" class="er entityLabel"/><rect height="22" width="43.77210998535156" y="90" x="0" class="er attributeBoxEven"/><text style="dominant-baseline: middle; font-size: 10.2px;" transform="translate(5,101)" y="0" x="0" id="text-entity-books-6df542cd-2488-5f8f-8c0d-acd20e807fe7-attr-4-type" class="er entityLabel">text</text><rect height="22" width="71.75" y="90" x="43.77210998535156" class="er attributeBoxEven"/><text style="dominant-baseline: middle; font-size: 10.2px;" transform="translate(48.77210998535156,101)" y="0" x="0" id="text-entity-books-6df542cd-2488-5f8f-8c0d-acd20e807fe7-attr-4-name" class="er entityLabel">cover</text><rect height="22" width="22.68768310546875" y="90" x="115.52210998535156" class="er attributeBoxEven"/><text style="dominant-baseline: middle; font-size: 10.2px;" transform="translate(120.52210998535156,101)" y="0" x="0" id="text-entity-books-6df542cd-2488-5f8f-8c0d-acd20e807fe7-attr-4-key" class="er entityLabel"/><rect height="22" width="43.77210998535156" y="112" x="0" class="er attributeBoxOdd"/><text style="dominant-baseline: middle; font-size: 10.2px;" transform="translate(5,123)" y="0" x="0" id="text-entity-books-6df542cd-2488-5f8f-8c0d-acd20e807fe7-attr-5-type" class="er entityLabel">text</text><rect height="22" width="71.75" y="112" x="43.77210998535156" class="er attributeBoxOdd"/><text style="dominant-baseline: middle; font-size: 10.2px;" transform="translate(48.77210998535156,123)" y="0" x="0" id="text-entity-books-6df542cd-2488-5f8f-8c0d-acd20e807fe7-attr-5-name" class="er entityLabel">download_url</text><rect height="22" width="22.68768310546875" y="112" x="115.52210998535156" class="er attributeBoxOdd"/><text style="dominant-baseline: middle; font-size: 10.2px;" transform="translate(120.52210998535156,123)" y="0" x="0" id="text-entity-books-6df542cd-2488-5f8f-8c0d-acd20e807fe7-attr-5-key" class="er entityLabel"/></g><g transform="translate(258.2097930908203,20 )" id="entity-processedImages-f31dca8b-62c6-5f0b-b03b-9c0ee7a4dd7c"><rect height="354" width="213.9539337158203" y="0" x="0" class="er entityBox"/><text style="dominant-baseline: middle; text-anchor: middle; font-size: 12px;" transform="translate(106.97696685791016,12)" y="0" x="0" id="text-entity-processedImages-f31dca8b-62c6-5f0b-b03b-9c0ee7a4dd7c" class="er entityLabel">processedImages</text><rect height="22" width="46.56010437011719" y="24" x="0" class="er attributeBoxOdd"/><text style="dominant-baseline: middle; font-size: 10.2px;" transform="translate(5,35)" y="0" x="0" id="text-entity-processedImages-f31dca8b-62c6-5f0b-b03b-9c0ee7a4dd7c-attr-1-type" class="er entityLabel">serial</text><rect height="22" width="144.70614624023438" y="24" x="46.56010437011719" class="er attributeBoxOdd"/><text style="dominant-baseline: middle; font-size: 10.2px;" transform="translate(51.56010437011719,35)" y="0" x="0" id="text-entity-processedImages-f31dca8b-62c6-5f0b-b03b-9c0ee7a4dd7c-attr-1-name" class="er entityLabel">id</text><rect height="22" width="22.68768310546875" y="24" x="191.26625061035156" class="er attributeBoxOdd"/><text style="dominant-baseline: middle; font-size: 10.2px;" transform="translate(196.26625061035156,35)" y="0" x="0" id="text-entity-processedImages-f31dca8b-62c6-5f0b-b03b-9c0ee7a4dd7c-attr-1-key" class="er entityLabel">PK</text><rect height="22" width="46.56010437011719" y="46" x="0" class="er attributeBoxEven"/><text style="dominant-baseline: middle; font-size: 10.2px;" transform="translate(5,57)" y="0" x="0" id="text-entity-processedImages-f31dca8b-62c6-5f0b-b03b-9c0ee7a4dd7c-attr-2-type" class="er entityLabel">decimal</text><rect height="22" width="144.70614624023438" y="46" x="46.56010437011719" class="er attributeBoxEven"/><text style="dominant-baseline: middle; font-size: 10.2px;" transform="translate(51.56010437011719,57)" y="0" x="0" id="text-entity-processedImages-f31dca8b-62c6-5f0b-b03b-9c0ee7a4dd7c-attr-2-name" class="er entityLabel">score</text><rect height="22" width="22.68768310546875" y="46" x="191.26625061035156" class="er attributeBoxEven"/><text style="dominant-baseline: middle; font-size: 10.2px;" transform="translate(196.26625061035156,57)" y="0" x="0" id="text-entity-processedImages-f31dca8b-62c6-5f0b-b03b-9c0ee7a4dd7c-attr-2-key" class="er entityLabel"/><rect height="22" width="46.56010437011719" y="68" x="0" class="er attributeBoxOdd"/><text style="dominant-baseline: middle; font-size: 10.2px;" transform="translate(5,79)" y="0" x="0" id="text-entity-processedImages-f31dca8b-62c6-5f0b-b03b-9c0ee7a4dd7c-attr-3-type" class="er entityLabel">text</text><rect height="22" width="144.70614624023438" y="68" x="46.56010437011719" class="er attributeBoxOdd"/><text style="dominant-baseline: middle; font-size: 10.2px;" transform="translate(51.56010437011719,79)" y="0" x="0" id="text-entity-processedImages-f31dca8b-62c6-5f0b-b03b-9c0ee7a4dd7c-attr-3-name" class="er entityLabel">image</text><rect height="22" width="22.68768310546875" y="68" x="191.26625061035156" class="er attributeBoxOdd"/><text style="dominant-baseline: middle; font-size: 10.2px;" transform="translate(196.26625061035156,79)" y="0" x="0" id="text-entity-processedImages-f31dca8b-62c6-5f0b-b03b-9c0ee7a4dd7c-attr-3-key" class="er entityLabel"/><rect height="22" width="46.56010437011719" y="90" x="0" class="er attributeBoxEven"/><text style="dominant-baseline: middle; font-size: 10.2px;" transform="translate(5,101)" y="0" x="0" id="text-entity-processedImages-f31dca8b-62c6-5f0b-b03b-9c0ee7a4dd7c-attr-4-type" class="er entityLabel">boolean</text><rect height="22" width="144.70614624023438" y="90" x="46.56010437011719" class="er attributeBoxEven"/><text style="dominant-baseline: middle; font-size: 10.2px;" transform="translate(51.56010437011719,101)" y="0" x="0" id="text-entity-processedImages-f31dca8b-62c6-5f0b-b03b-9c0ee7a4dd7c-attr-4-name" class="er entityLabel">arched_eyebrows</text><rect height="22" width="22.68768310546875" y="90" x="191.26625061035156" class="er attributeBoxEven"/><text style="dominant-baseline: middle; font-size: 10.2px;" transform="translate(196.26625061035156,101)" y="0" x="0" id="text-entity-processedImages-f31dca8b-62c6-5f0b-b03b-9c0ee7a4dd7c-attr-4-key" class="er entityLabel"/><rect height="22" width="46.56010437011719" y="112" x="0" class="er attributeBoxOdd"/><text style="dominant-baseline: middle; font-size: 10.2px;" transform="translate(5,123)" y="0" x="0" id="text-entity-processedImages-f31dca8b-62c6-5f0b-b03b-9c0ee7a4dd7c-attr-5-type" class="er entityLabel">boolean</text><rect height="22" width="144.70614624023438" y="112" x="46.56010437011719" class="er attributeBoxOdd"/><text style="dominant-baseline: middle; font-size: 10.2px;" transform="translate(51.56010437011719,123)" y="0" x="0" id="text-entity-processedImages-f31dca8b-62c6-5f0b-b03b-9c0ee7a4dd7c-attr-5-name" class="er entityLabel">bags_under_eyes</text><rect height="22" width="22.68768310546875" y="112" x="191.26625061035156" class="er attributeBoxOdd"/><text style="dominant-baseline: middle; font-size: 10.2px;" transform="translate(196.26625061035156,123)" y="0" x="0" id="text-entity-processedImages-f31dca8b-62c6-5f0b-b03b-9c0ee7a4dd7c-attr-5-key" class="er entityLabel"/><rect height="22" width="46.56010437011719" y="134" x="0" class="er attributeBoxEven"/><text style="dominant-baseline: middle; font-size: 10.2px;" transform="translate(5,145)" y="0" x="0" id="text-entity-processedImages-f31dca8b-62c6-5f0b-b03b-9c0ee7a4dd7c-attr-6-type" class="er entityLabel">boolean</text><rect height="22" width="144.70614624023438" y="134" x="46.56010437011719" class="er attributeBoxEven"/><text style="dominant-baseline: middle; font-size: 10.2px;" transform="translate(51.56010437011719,145)" y="0" x="0" id="text-entity-processedImages-f31dca8b-62c6-5f0b-b03b-9c0ee7a4dd7c-attr-6-name" class="er entityLabel">bald</text><rect height="22" width="22.68768310546875" y="134" x="191.26625061035156" class="er attributeBoxEven"/><text style="dominant-baseline: middle; font-size: 10.2px;" transform="translate(196.26625061035156,145)" y="0" x="0" id="text-entity-processedImages-f31dca8b-62c6-5f0b-b03b-9c0ee7a4dd7c-attr-6-key" class="er entityLabel"/><rect height="22" width="46.56010437011719" y="156" x="0" class="er attributeBoxOdd"/><text style="dominant-baseline: middle; font-size: 10.2px;" transform="translate(5,167)" y="0" x="0" id="text-entity-processedImages-f31dca8b-62c6-5f0b-b03b-9c0ee7a4dd7c-attr-7-type" class="er entityLabel">boolean</text><rect height="22" width="144.70614624023438" y="156" x="46.56010437011719" class="er attributeBoxOdd"/><text style="dominant-baseline: middle; font-size: 10.2px;" transform="translate(51.56010437011719,167)" y="0" x="0" id="text-entity-processedImages-f31dca8b-62c6-5f0b-b03b-9c0ee7a4dd7c-attr-7-name" class="er entityLabel">blurry</text><rect height="22" width="22.68768310546875" y="156" x="191.26625061035156" class="er attributeBoxOdd"/><text style="dominant-baseline: middle; font-size: 10.2px;" transform="translate(196.26625061035156,167)" y="0" x="0" id="text-entity-processedImages-f31dca8b-62c6-5f0b-b03b-9c0ee7a4dd7c-attr-7-key" class="er entityLabel"/><rect height="22" width="46.56010437011719" y="178" x="0" class="er attributeBoxEven"/><text style="dominant-baseline: middle; font-size: 10.2px;" transform="translate(5,189)" y="0" x="0" id="text-entity-processedImages-f31dca8b-62c6-5f0b-b03b-9c0ee7a4dd7c-attr-8-type" class="er entityLabel">boolean</text><rect height="22" width="144.70614624023438" y="178" x="46.56010437011719" class="er attributeBoxEven"/><text style="dominant-baseline: middle; font-size: 10.2px;" transform="translate(51.56010437011719,189)" y="0" x="0" id="text-entity-processedImages-f31dca8b-62c6-5f0b-b03b-9c0ee7a4dd7c-attr-8-name" class="er entityLabel">bushy_eyebrows</text><rect height="22" width="22.68768310546875" y="178" x="191.26625061035156" class="er attributeBoxEven"/><text style="dominant-baseline: middle; font-size: 10.2px;" transform="translate(196.26625061035156,189)" y="0" x="0" id="text-entity-processedImages-f31dca8b-62c6-5f0b-b03b-9c0ee7a4dd7c-attr-8-key" class="er entityLabel"/><rect height="22" width="46.56010437011719" y="200" x="0" class="er attributeBoxOdd"/><text style="dominant-baseline: middle; font-size: 10.2px;" transform="translate(5,211)" y="0" x="0" id="text-entity-processedImages-f31dca8b-62c6-5f0b-b03b-9c0ee7a4dd7c-attr-9-type" class="er entityLabel">boolean</text><rect height="22" width="144.70614624023438" y="200" x="46.56010437011719" class="er attributeBoxOdd"/><text style="dominant-baseline: middle; font-size: 10.2px;" transform="translate(51.56010437011719,211)" y="0" x="0" id="text-entity-processedImages-f31dca8b-62c6-5f0b-b03b-9c0ee7a4dd7c-attr-9-name" class="er entityLabel">eyeglasses</text><rect height="22" width="22.68768310546875" y="200" x="191.26625061035156" class="er attributeBoxOdd"/><text style="dominant-baseline: middle; font-size: 10.2px;" transform="translate(196.26625061035156,211)" y="0" x="0" id="text-entity-processedImages-f31dca8b-62c6-5f0b-b03b-9c0ee7a4dd7c-attr-9-key" class="er entityLabel"/><rect height="22" width="46.56010437011719" y="222" x="0" class="er attributeBoxEven"/><text style="dominant-baseline: middle; font-size: 10.2px;" transform="translate(5,233)" y="0" x="0" id="text-entity-processedImages-f31dca8b-62c6-5f0b-b03b-9c0ee7a4dd7c-attr-10-type" class="er entityLabel">boolean</text><rect height="22" width="144.70614624023438" y="222" x="46.56010437011719" class="er attributeBoxEven"/><text style="dominant-baseline: middle; font-size: 10.2px;" transform="translate(51.56010437011719,233)" y="0" x="0" id="text-entity-processedImages-f31dca8b-62c6-5f0b-b03b-9c0ee7a4dd7c-attr-10-name" class="er entityLabel">gray_hair</text><rect height="22" width="22.68768310546875" y="222" x="191.26625061035156" class="er attributeBoxEven"/><text style="dominant-baseline: middle; font-size: 10.2px;" transform="translate(196.26625061035156,233)" y="0" x="0" id="text-entity-processedImages-f31dca8b-62c6-5f0b-b03b-9c0ee7a4dd7c-attr-10-key" class="er entityLabel"/><rect height="22" width="46.56010437011719" y="244" x="0" class="er attributeBoxOdd"/><text style="dominant-baseline: middle; font-size: 10.2px;" transform="translate(5,255)" y="0" x="0" id="text-entity-processedImages-f31dca8b-62c6-5f0b-b03b-9c0ee7a4dd7c-attr-11-type" class="er entityLabel">boolean</text><rect height="22" width="144.70614624023438" y="244" x="46.56010437011719" class="er attributeBoxOdd"/><text style="dominant-baseline: middle; font-size: 10.2px;" transform="translate(51.56010437011719,255)" y="0" x="0" id="text-entity-processedImages-f31dca8b-62c6-5f0b-b03b-9c0ee7a4dd7c-attr-11-name" class="er entityLabel">narrow_eyes</text><rect height="22" width="22.68768310546875" y="244" x="191.26625061035156" class="er attributeBoxOdd"/><text style="dominant-baseline: middle; font-size: 10.2px;" transform="translate(196.26625061035156,255)" y="0" x="0" id="text-entity-processedImages-f31dca8b-62c6-5f0b-b03b-9c0ee7a4dd7c-attr-11-key" class="er entityLabel"/><rect height="22" width="46.56010437011719" y="266" x="0" class="er attributeBoxEven"/><text style="dominant-baseline: middle; font-size: 10.2px;" transform="translate(5,277)" y="0" x="0" id="text-entity-processedImages-f31dca8b-62c6-5f0b-b03b-9c0ee7a4dd7c-attr-12-type" class="er entityLabel">boolean</text><rect height="22" width="144.70614624023438" y="266" x="46.56010437011719" class="er attributeBoxEven"/><text style="dominant-baseline: middle; font-size: 10.2px;" transform="translate(51.56010437011719,277)" y="0" x="0" id="text-entity-processedImages-f31dca8b-62c6-5f0b-b03b-9c0ee7a4dd7c-attr-12-name" class="er entityLabel">pale_skin</text><rect height="22" width="22.68768310546875" y="266" x="191.26625061035156" class="er attributeBoxEven"/><text style="dominant-baseline: middle; font-size: 10.2px;" transform="translate(196.26625061035156,277)" y="0" x="0" id="text-entity-processedImages-f31dca8b-62c6-5f0b-b03b-9c0ee7a4dd7c-attr-12-key" class="er entityLabel"/><rect height="22" width="46.56010437011719" y="288" x="0" class="er attributeBoxOdd"/><text style="dominant-baseline: middle; font-size: 10.2px;" transform="translate(5,299)" y="0" x="0" id="text-entity-processedImages-f31dca8b-62c6-5f0b-b03b-9c0ee7a4dd7c-attr-13-type" class="er entityLabel">boolean</text><rect height="22" width="144.70614624023438" y="288" x="46.56010437011719" class="er attributeBoxOdd"/><text style="dominant-baseline: middle; font-size: 10.2px;" transform="translate(51.56010437011719,299)" y="0" x="0" id="text-entity-processedImages-f31dca8b-62c6-5f0b-b03b-9c0ee7a4dd7c-attr-13-name" class="er entityLabel">receding_hairline</text><rect height="22" width="22.68768310546875" y="288" x="191.26625061035156" class="er attributeBoxOdd"/><text style="dominant-baseline: middle; font-size: 10.2px;" transform="translate(196.26625061035156,299)" y="0" x="0" id="text-entity-processedImages-f31dca8b-62c6-5f0b-b03b-9c0ee7a4dd7c-attr-13-key" class="er entityLabel"/><rect height="22" width="46.56010437011719" y="310" x="0" class="er attributeBoxEven"/><text style="dominant-baseline: middle; font-size: 10.2px;" transform="translate(5,321)" y="0" x="0" id="text-entity-processedImages-f31dca8b-62c6-5f0b-b03b-9c0ee7a4dd7c-attr-14-type" class="er entityLabel">boolean</text><rect height="22" width="144.70614624023438" y="310" x="46.56010437011719" class="er attributeBoxEven"/><text style="dominant-baseline: middle; font-size: 10.2px;" transform="translate(51.56010437011719,321)" y="0" x="0" id="text-entity-processedImages-f31dca8b-62c6-5f0b-b03b-9c0ee7a4dd7c-attr-14-name" class="er entityLabel">young</text><rect height="22" width="22.68768310546875" y="310" x="191.26625061035156" class="er attributeBoxEven"/><text style="dominant-baseline: middle; font-size: 10.2px;" transform="translate(196.26625061035156,321)" y="0" x="0" id="text-entity-processedImages-f31dca8b-62c6-5f0b-b03b-9c0ee7a4dd7c-attr-14-key" class="er entityLabel"/><rect height="22" width="46.56010437011719" y="332" x="0" class="er attributeBoxOdd"/><text style="dominant-baseline: middle; font-size: 10.2px;" transform="translate(5,343)" y="0" x="0" id="text-entity-processedImages-f31dca8b-62c6-5f0b-b03b-9c0ee7a4dd7c-attr-15-type" class="er entityLabel">text</text><rect height="22" width="144.70614624023438" y="332" x="46.56010437011719" class="er attributeBoxOdd"/><text style="dominant-baseline: middle; font-size: 10.2px;" transform="translate(51.56010437011719,343)" y="0" x="0" id="text-entity-processedImages-f31dca8b-62c6-5f0b-b03b-9c0ee7a4dd7c-attr-15-name" class="er entityLabel">predicted_visual_impairment</text><rect height="22" width="22.68768310546875" y="332" x="191.26625061035156" class="er attributeBoxOdd"/><text style="dominant-baseline: middle; font-size: 10.2px;" transform="translate(196.26625061035156,343)" y="0" x="0" id="text-entity-processedImages-f31dca8b-62c6-5f0b-b03b-9c0ee7a4dd7c-attr-15-key" class="er entityLabel"/></g><g transform="translate(241.3310089111328,474 )" id="entity-reinforcementAcessibility-268607fe-2774-57ef-b75c-1128729e48c2"><rect height="112" width="247.7115020751953" y="0" x="0" class="er entityBox"/><text style="dominant-baseline: middle; text-anchor: middle; font-size: 12px;" transform="translate(123.85575103759766,12)" y="0" x="0" id="text-entity-reinforcementAcessibility-268607fe-2774-57ef-b75c-1128729e48c2" class="er entityLabel">reinforcementAcessibility</text><rect height="22" width="58.98138427734375" y="24" x="0" class="er attributeBoxOdd"/><text style="dominant-baseline: middle; font-size: 10.2px;" transform="translate(5,35)" y="0" x="0" id="text-entity-reinforcementAcessibility-268607fe-2774-57ef-b75c-1128729e48c2-attr-1-type" class="er entityLabel">serial</text><rect height="22" width="166.0424346923828" y="24" x="58.98138427734375" class="er attributeBoxOdd"/><text style="dominant-baseline: middle; font-size: 10.2px;" transform="translate(63.98138427734375,35)" y="0" x="0" id="text-entity-reinforcementAcessibility-268607fe-2774-57ef-b75c-1128729e48c2-attr-1-name" class="er entityLabel">id</text><rect height="22" width="22.68768310546875" y="24" x="225.02381896972656" class="er attributeBoxOdd"/><text style="dominant-baseline: middle; font-size: 10.2px;" transform="translate(230.02381896972656,35)" y="0" x="0" id="text-entity-reinforcementAcessibility-268607fe-2774-57ef-b75c-1128729e48c2-attr-1-key" class="er entityLabel">PK</text><rect height="22" width="58.98138427734375" y="46" x="0" class="er attributeBoxEven"/><text style="dominant-baseline: middle; font-size: 10.2px;" transform="translate(5,57)" y="0" x="0" id="text-entity-reinforcementAcessibility-268607fe-2774-57ef-b75c-1128729e48c2-attr-2-type" class="er entityLabel">integer</text><rect height="22" width="166.0424346923828" y="46" x="58.98138427734375" class="er attributeBoxEven"/><text style="dominant-baseline: middle; font-size: 10.2px;" transform="translate(63.98138427734375,57)" y="0" x="0" id="text-entity-reinforcementAcessibility-268607fe-2774-57ef-b75c-1128729e48c2-attr-2-name" class="er entityLabel">processed_image_id</text><rect height="22" width="22.68768310546875" y="46" x="225.02381896972656" class="er attributeBoxEven"/><text style="dominant-baseline: middle; font-size: 10.2px;" transform="translate(230.02381896972656,57)" y="0" x="0" id="text-entity-reinforcementAcessibility-268607fe-2774-57ef-b75c-1128729e48c2-attr-2-key" class="er entityLabel">FK</text><rect height="22" width="58.98138427734375" y="68" x="0" class="er attributeBoxOdd"/><text style="dominant-baseline: middle; font-size: 10.2px;" transform="translate(5,79)" y="0" x="0" id="text-entity-reinforcementAcessibility-268607fe-2774-57ef-b75c-1128729e48c2-attr-3-type" class="er entityLabel">text</text><rect height="22" width="166.0424346923828" y="68" x="58.98138427734375" class="er attributeBoxOdd"/><text style="dominant-baseline: middle; font-size: 10.2px;" transform="translate(63.98138427734375,79)" y="0" x="0" id="text-entity-reinforcementAcessibility-268607fe-2774-57ef-b75c-1128729e48c2-attr-3-name" class="er entityLabel">reinforcement_visual_impairment</text><rect height="22" width="22.68768310546875" y="68" x="225.02381896972656" class="er attributeBoxOdd"/><text style="dominant-baseline: middle; font-size: 10.2px;" transform="translate(230.02381896972656,79)" y="0" x="0" id="text-entity-reinforcementAcessibility-268607fe-2774-57ef-b75c-1128729e48c2-attr-3-key" class="er entityLabel"/><rect height="22" width="58.98138427734375" y="90" x="0" class="er attributeBoxEven"/><text style="dominant-baseline: middle; font-size: 10.2px;" transform="translate(5,101)" y="0" x="0" id="text-entity-reinforcementAcessibility-268607fe-2774-57ef-b75c-1128729e48c2-attr-4-type" class="er entityLabel">timestamp</text><rect height="22" width="166.0424346923828" y="90" x="58.98138427734375" class="er attributeBoxEven"/><text style="dominant-baseline: middle; font-size: 10.2px;" transform="translate(63.98138427734375,101)" y="0" x="0" id="text-entity-reinforcementAcessibility-268607fe-2774-57ef-b75c-1128729e48c2-attr-4-name" class="er entityLabel">created_at</text><rect height="22" width="22.68768310546875" y="90" x="225.02381896972656" class="er attributeBoxEven"/><text style="dominant-baseline: middle; font-size: 10.2px;" transform="translate(230.02381896972656,101)" y="0" x="0" id="text-entity-reinforcementAcessibility-268607fe-2774-57ef-b75c-1128729e48c2-attr-4-key" class="er entityLabel"/></g><rect height="14" width="17.861328125" y="417" x="356.25634765625" class="er relationshipLabelBox"/><text style="text-anchor: middle; dominant-baseline: middle; font-size: 12px;" y="424" x="365.18701171875" id="rel1" class="er relationshipLabel">has</text></svg>